<svg width="90" height="52" viewBox="0 0 90 52" fill="none" xmlns="http://www.w3.org/2000/svg">
<rect y="4" width="90" height="48" rx="12" fill="#FEFFF4"/>
<path d="M84.8633 16.2356L79.9751 15.3832L79.2431 10.9966L79.1417 10.3405L79.1014 10.1639C79.0947 10.1639 79.0864 10.1635 79.0816 10.1662C79.0754 10.1698 79.0688 10.1804 79.0691 10.1948L79.0739 10.4104L79.094 10.4126L79.0869 10.8833C79.086 10.9409 79.0869 11.0007 79.0869 11.0583V11.3697L79.0883 11.6329V12.1051L79.0885 12.2852V14.5362L79.1052 14.5318C79.0926 14.5561 79.1249 14.6125 79.0894 14.6296L79.0967 15.5264C79.0977 15.6595 79.1567 15.787 79.1055 15.922C79.0714 16.0119 79.097 16.1178 79.0922 16.2093C79.0803 16.2211 79.0683 16.2413 79.0517 16.2354C79.0329 16.2285 79.018 16.2172 79.0004 16.2118C78.9932 16.2096 78.9836 16.2118 78.9754 16.2073C78.9646 16.2015 78.9619 16.1875 78.9632 16.175C78.9534 16.1558 78.9344 16.1428 78.9152 16.1369C78.8746 16.1783 78.5918 15.8983 78.5915 15.8668C78.5746 15.8614 78.5645 15.8271 78.5412 15.8291C78.5082 15.832 78.4539 15.8354 78.4326 15.7985C78.3998 15.7414 78.3447 15.7549 78.2996 15.7315C78.2112 15.6854 78.1417 15.6092 78.033 15.6083C77.9402 15.4023 77.7441 15.4931 77.7579 15.4009L77.5974 15.385L77.3148 15.4389L75.9484 15.7245C75.9161 15.7313 75.8708 15.7387 75.8378 15.7427C75.5939 15.7711 75.356 15.8423 75.1161 15.8884L73.0533 16.2831C73.0614 16.2831 73.0728 16.3067 73.0879 16.3033C73.0983 16.3007 73.6907 16.3609 73.9039 16.3344L74.0114 16.3211L74.0823 16.3025L75.2527 16.2952C75.3488 16.2946 75.4271 16.2941 75.5241 16.2948L77.3725 16.3114L78.1573 16.3276C78.3627 16.3319 78.5625 16.3362 78.7706 16.3359C78.8473 16.3359 78.9188 16.3132 78.9841 16.3396C79.0171 16.3531 79.0688 16.3256 79.1043 16.3368C79.1243 16.3431 79.1508 16.3251 79.159 16.3085L80.1736 16.3092L83.6209 16.2916L84.4904 16.273C84.6242 16.2701 84.7545 16.2739 84.8766 16.2503C84.8747 16.2496 84.871 16.2446 84.8631 16.2357L84.8633 16.2356Z" fill="#E6E6E6"/>
<path d="M79.3384 16.6762C79.3398 16.6431 79.3121 16.6189 79.2887 16.6069C79.2752 16.6 79.2805 16.5545 79.2502 16.5674C79.2482 16.5493 79.1614 16.4034 79.1075 16.4313C79.0974 16.4743 79.1282 16.5136 79.1274 16.5545L79.1164 17.0493L79.1011 18.3351C79.0993 18.4851 79.0791 18.6207 79.0998 18.7709C79.1164 18.8901 79.1002 19.4629 79.0981 19.623L79.0807 20.8627C79.0784 21.0236 79.0704 21.1756 79.0725 21.3276C79.0636 21.3658 79.0826 21.4148 79.0697 21.4517C79.0319 21.5605 79.0597 21.6804 79.0546 21.7953C79.0526 21.8362 79.0587 21.8961 79.0514 21.9345C79.0819 21.953 79.0816 22.0121 79.0517 22.0312V22.2583C79.0949 22.2979 79.0475 22.4002 79.0908 22.4594C79.1038 22.4481 79.1023 22.4328 79.1062 22.4077L79.4944 19.903L79.9054 17.3423C79.8134 17.1811 79.6693 17.0663 79.5425 16.9017C79.5179 16.8698 79.3755 16.6636 79.3386 16.6764L79.3384 16.6762Z" fill="#E6E6E6"/>
<path d="M84.9237 16.2509C84.9231 16.2615 84.9233 16.2721 84.924 16.2827C84.9434 16.2813 84.9961 16.2977 85 16.2651C84.995 16.2323 84.9432 16.2503 84.9237 16.2509Z" fill="#E6E6E6"/>
<path d="M84.8724 16.2997C84.8809 16.2979 84.9018 16.2997 84.8944 16.2849C84.8866 16.2854 84.866 16.2871 84.8724 16.2997Z" fill="#E6E6E6"/>
<path d="M79.0516 22.2581C78.9987 22.2826 79.1018 22.7612 78.968 22.696C78.9728 22.7229 79.0201 22.9978 78.9997 23H79.0352C79.0152 22.8675 79.0913 22.6159 79.0908 22.4594C79.0475 22.4002 79.0949 22.2979 79.0517 22.2583L79.0516 22.2581Z" fill="#FEF7EB"/>
<path d="M84.9237 16.2509C84.9086 16.2514 84.8914 16.2473 84.8768 16.2501C84.7549 16.2737 84.6246 16.27 84.4906 16.2728L83.6211 16.2914L80.1738 16.309L79.1591 16.3083C79.151 16.3251 79.1245 16.3429 79.1045 16.3366C79.0949 16.3668 79.1146 16.4021 79.1077 16.4315C79.1616 16.4036 79.2484 16.5496 79.2504 16.5676C79.2809 16.5547 79.2754 16.6 79.2889 16.6071C79.3125 16.6191 79.34 16.6433 79.3386 16.6764C79.3755 16.6638 79.5181 16.8698 79.5425 16.9017C79.6693 17.0663 79.8132 17.1811 79.9054 17.3423L84.8726 16.2998C84.8663 16.2871 84.8869 16.2856 84.8946 16.2851L84.9242 16.2829C84.9235 16.2723 84.9233 16.2617 84.9239 16.251L84.9237 16.2509Z" fill="#FEF7EB"/>
<path d="M79.0514 21.9343C79.0214 21.9725 79.0517 21.9941 79.0517 22.031C79.0816 22.0119 79.0819 21.9528 79.0514 21.9343Z" fill="#FEF7EB"/>
<path d="M79.1164 17.0493L79.1274 16.5545C79.1282 16.5136 79.0974 16.4743 79.1075 16.4313C79.1144 16.4019 79.0947 16.3667 79.1043 16.3364C79.0688 16.3252 79.0173 16.3528 78.9841 16.3393C78.9186 16.3126 78.8473 16.3353 78.7706 16.3355C78.5624 16.336 78.3625 16.3315 78.1573 16.3272L77.3725 16.311L75.5241 16.2944C75.4272 16.2935 75.3488 16.2941 75.2527 16.2948L74.0823 16.3022L74.0114 16.3207L73.9039 16.3341C73.6907 16.3605 73.0983 16.3004 73.0879 16.3029C73.0728 16.3065 73.0614 16.2827 73.0533 16.2827H73V16.3188C73.054 16.3177 73.1104 16.3229 73.1711 16.3355L73.8875 16.4828L78.0107 17.3627C78.0098 17.3641 78.01 17.3645 78.011 17.3643L78.2538 18.7498L78.4674 19.9059L78.9681 22.6958C79.102 22.761 78.9988 22.2824 79.0517 22.2579V22.0308C79.0517 21.9939 79.0216 21.9723 79.0514 21.9341C79.0588 21.8958 79.0528 21.836 79.0546 21.7949C79.0599 21.68 79.0319 21.5601 79.0697 21.4513C79.0825 21.4144 79.0635 21.3654 79.0725 21.3273C79.0704 21.1753 79.0784 21.0233 79.0807 20.8623L79.0981 19.6226C79.1004 19.4626 79.1164 18.8897 79.0998 18.7705C79.0791 18.6203 79.0993 18.4849 79.1011 18.3347L79.1164 17.049L79.1164 17.0493Z" fill="#B9A951"/>
<path d="M78.033 15.6082C78.1418 15.6091 78.2112 15.6852 78.2996 15.7313C78.3447 15.7549 78.3999 15.7414 78.4326 15.7983C78.4539 15.8352 78.5082 15.8318 78.5412 15.8289C78.5645 15.827 78.5746 15.8612 78.5915 15.8666C78.592 15.8983 78.8748 16.1781 78.9152 16.1367C78.9344 16.1425 78.9534 16.1554 78.9632 16.1749C78.9617 16.1873 78.9644 16.2013 78.9754 16.2071C78.9836 16.2114 78.9932 16.2094 79.0004 16.2116C79.018 16.217 79.0329 16.2284 79.0517 16.2352C79.0683 16.2411 79.0803 16.221 79.0922 16.2091C79.097 16.1176 79.0716 16.0117 79.1055 15.9219C79.1567 15.7868 79.0977 15.6593 79.0967 15.5262L79.0894 14.6294C79.1247 14.6123 79.0924 14.556 79.1052 14.5317L79.0885 14.536V11.6329L79.0869 11.3697V11.0583C79.0869 11.0007 79.0862 10.9409 79.0869 10.8833L79.094 10.4126L79.0739 10.4104L79.0691 10.1948C79.0688 10.1804 79.0754 10.1698 79.0816 10.1662C79.0864 10.1633 79.0945 10.1637 79.1014 10.1639C79.0899 10.1131 79.1048 10.0526 79.0636 10L77.9874 15.3098L77.5974 15.3849L77.7579 15.4007C77.7439 15.4929 77.94 15.4023 78.033 15.6082Z" fill="#B9A951"/>
<path d="M17.8519 38.7152L12.5564 37.7973L11.7634 33.0732L11.6536 32.3667L11.6099 32.1765C11.6026 32.1765 11.5936 32.1761 11.5884 32.179C11.5816 32.1829 11.5745 32.1943 11.5749 32.2098L11.5801 32.442L11.6018 32.4443L11.5941 32.9512C11.5932 33.0133 11.5941 33.0777 11.5941 33.1397V33.475L11.5957 33.7586V34.267L11.5959 34.461V36.8851L11.6139 36.8804C11.6003 36.9066 11.6353 36.9673 11.5968 36.9857L11.6047 37.9515C11.6059 38.0948 11.6697 38.2321 11.6143 38.3776C11.5774 38.4744 11.6051 38.5884 11.5999 38.6869C11.587 38.6997 11.5739 38.7214 11.5561 38.715C11.5357 38.7077 11.5195 38.6954 11.5005 38.6896C11.4926 38.6873 11.4822 38.6896 11.4734 38.6848C11.4616 38.6786 11.4588 38.6634 11.4601 38.6501C11.4495 38.6293 11.4289 38.6153 11.4082 38.6089C11.3641 38.6535 11.0578 38.352 11.0574 38.318C11.0392 38.3122 11.0282 38.2754 11.003 38.2775C10.9672 38.2806 10.9084 38.2843 10.8853 38.2445C10.8497 38.1831 10.7901 38.1976 10.7413 38.1724C10.6455 38.1228 10.5701 38.0407 10.4525 38.0398C10.3519 37.8179 10.1394 37.9156 10.1544 37.8163L9.98055 37.7993L9.67441 37.8573L8.19409 38.1648C8.15909 38.1722 8.11005 38.1802 8.07429 38.1844C7.81007 38.2151 7.55239 38.2917 7.2924 38.3413L5.05769 38.7664C5.06654 38.7664 5.07884 38.7918 5.09519 38.7881C5.10653 38.7854 5.74824 38.8502 5.97919 38.8217L6.09572 38.8073L6.17245 38.7874L7.44047 38.7794C7.5445 38.7788 7.62931 38.7782 7.73449 38.779L9.73691 38.7969L10.5871 38.8143C10.8096 38.819 11.0261 38.8236 11.2515 38.8232C11.3345 38.8232 11.412 38.7988 11.4828 38.8273C11.5186 38.8418 11.5745 38.8122 11.613 38.8242C11.6347 38.831 11.6634 38.8116 11.6722 38.7938L12.7714 38.7945L16.506 38.7755L17.4479 38.7556C17.5929 38.7524 17.7341 38.7565 17.8664 38.7311C17.8642 38.7303 17.8602 38.7249 17.8517 38.7154L17.8519 38.7152Z" fill="#E6E6E6"/>
<path d="M11.8666 39.1898C11.8682 39.1541 11.8382 39.1281 11.8128 39.1151C11.7982 39.1077 11.8039 39.0587 11.771 39.0726C11.7689 39.053 11.6749 38.896 11.6164 38.926C11.6055 38.9724 11.6389 39.0146 11.638 39.0587L11.6261 39.5916L11.6095 40.9762C11.6076 41.1378 11.5857 41.2838 11.6082 41.4456C11.6261 41.5739 11.6086 42.1908 11.6062 42.3632L11.5874 43.6982C11.5849 43.8716 11.5762 44.0353 11.5786 44.199C11.5689 44.2401 11.5895 44.2928 11.5755 44.3326C11.5345 44.4497 11.5647 44.5789 11.5591 44.7026C11.557 44.7466 11.5636 44.8112 11.5557 44.8525C11.5887 44.8725 11.5884 44.9361 11.5561 44.9567V45.2012C11.6028 45.2439 11.5514 45.354 11.5984 45.4178C11.6124 45.4056 11.6109 45.3891 11.6151 45.3622L12.0356 42.6648L12.4808 39.9071C12.3812 39.7335 12.2251 39.6098 12.0878 39.4326C12.061 39.3982 11.9068 39.1762 11.8668 39.19L11.8666 39.1898Z" fill="#E6E6E6"/>
<path d="M17.9173 38.7317C17.9167 38.7431 17.9169 38.7546 17.9177 38.766C17.9387 38.7645 17.9958 38.7821 18 38.747C17.9946 38.7117 17.9385 38.7311 17.9173 38.7317Z" fill="#E6E6E6"/>
<path d="M17.8617 38.7843C17.871 38.7823 17.8937 38.7843 17.8856 38.7684C17.8771 38.7689 17.8548 38.7707 17.8617 38.7843Z" fill="#E6E6E6"/>
<path d="M11.5559 45.201C11.4986 45.2274 11.6103 45.7428 11.4653 45.6726C11.4705 45.7015 11.5218 45.9977 11.4997 46H11.5382C11.5164 45.8573 11.5989 45.5863 11.5984 45.4178C11.5514 45.354 11.6028 45.2439 11.5561 45.2012L11.5559 45.201Z" fill="#FEF7EB"/>
<path d="M17.9173 38.7317C17.901 38.7323 17.8823 38.7278 17.8665 38.7309C17.7344 38.7563 17.5933 38.7523 17.4481 38.7554L16.5062 38.7753L12.7716 38.7943L11.6724 38.7936C11.6636 38.8116 11.6349 38.8308 11.6132 38.824C11.6028 38.8566 11.6241 38.8946 11.6166 38.9262C11.6751 38.8962 11.7691 39.0534 11.7712 39.0728C11.8043 39.0589 11.7984 39.1077 11.813 39.1153C11.8385 39.1283 11.8683 39.1543 11.8668 39.19C11.9068 39.1764 12.0612 39.3982 12.0878 39.4326C12.2251 39.6098 12.381 39.7335 12.4808 39.9071L17.8619 38.7844C17.8552 38.7707 17.8775 38.7691 17.8858 38.7685L17.9179 38.7662C17.9171 38.7548 17.9169 38.7433 17.9175 38.7319L17.9173 38.7317Z" fill="#FEF7EB"/>
<path d="M11.5557 44.8523C11.5232 44.8934 11.5561 44.9167 11.5561 44.9565C11.5884 44.9359 11.5887 44.8723 11.5557 44.8523Z" fill="#FEF7EB"/>
<path d="M11.6261 39.5916L11.638 39.0587C11.6389 39.0146 11.6055 38.9724 11.6164 38.926C11.6239 38.8944 11.6026 38.8564 11.613 38.8238C11.5745 38.8118 11.5187 38.8415 11.4828 38.8269C11.4118 38.7982 11.3345 38.8227 11.2515 38.8228C11.0259 38.8234 10.8094 38.8186 10.5871 38.8139L9.73691 38.7965L7.73449 38.7786C7.6295 38.7777 7.5445 38.7782 7.44047 38.779L6.17245 38.787L6.09572 38.8069L5.97919 38.8213C5.74824 38.8498 5.10653 38.785 5.09519 38.7877C5.07884 38.7916 5.06654 38.766 5.05769 38.766H5V38.8048C5.05846 38.8036 5.11961 38.8093 5.18538 38.8228L5.9615 38.9815L10.4282 39.929C10.4273 39.9306 10.4275 39.931 10.4286 39.9308L10.6917 41.4229L10.923 42.6679L11.4655 45.6725C11.6105 45.7427 11.4988 45.2272 11.5561 45.2008V44.9563C11.5561 44.9165 11.5234 44.8932 11.5557 44.8521C11.5637 44.8108 11.5572 44.7464 11.5591 44.7022C11.5649 44.5785 11.5345 44.4493 11.5755 44.3322C11.5893 44.2924 11.5687 44.2397 11.5786 44.1986C11.5762 44.0349 11.5849 43.8712 11.5874 43.6979L11.6062 42.3628C11.6087 42.1904 11.6261 41.5735 11.6082 41.4452C11.5857 41.2834 11.6076 41.1376 11.6095 40.9759L11.6261 39.5912L11.6261 39.5916Z" fill="#B9A951"/>
<path d="M10.4525 38.0396C10.5703 38.0405 10.6455 38.1226 10.7413 38.1722C10.7901 38.1976 10.8499 38.1831 10.8853 38.2444C10.9084 38.2841 10.9672 38.2804 11.003 38.2773C11.0282 38.2752 11.0392 38.312 11.0574 38.3179C11.058 38.352 11.3643 38.6533 11.4082 38.6087C11.4289 38.615 11.4495 38.6289 11.4601 38.6499C11.4586 38.6632 11.4614 38.6784 11.4734 38.6846C11.4822 38.6892 11.4926 38.6871 11.5005 38.6894C11.5195 38.6952 11.5357 38.7075 11.5561 38.7148C11.5739 38.7212 11.587 38.6995 11.5999 38.6867C11.6051 38.5882 11.5776 38.4742 11.6143 38.3774C11.6697 38.2319 11.6059 38.0946 11.6047 37.9513L11.5968 36.9856C11.6351 36.9671 11.6001 36.9064 11.6139 36.8802L11.5959 36.8849V33.7586L11.5941 33.475V33.1397C11.5941 33.0777 11.5934 33.0133 11.5941 32.9512L11.6018 32.4443L11.5801 32.442L11.5749 32.2098C11.5745 32.1943 11.5816 32.1829 11.5884 32.179C11.5936 32.1759 11.6024 32.1763 11.6099 32.1765C11.5974 32.1218 11.6136 32.0566 11.5689 32L10.403 37.7182L9.98055 37.7991L10.1544 37.8162C10.1392 37.9154 10.3517 37.8179 10.4525 38.0396Z" fill="#B9A951"/>
<path d="M25.7836 9.59316L18.044 8.28192L16.8849 1.53316L16.7244 0.523888L16.6606 0.252109C16.6499 0.252109 16.6367 0.251555 16.6291 0.255711C16.6193 0.261251 16.6089 0.277597 16.6095 0.29976L16.6171 0.631381L16.6488 0.634705L16.6376 1.3589C16.6362 1.44755 16.6376 1.53953 16.6376 1.62818V2.10719L16.6398 2.51222V3.23863L16.6401 3.51567V6.97871L16.6665 6.97206C16.6466 7.00946 16.6977 7.09618 16.6415 7.12249L16.653 8.50217C16.6547 8.7069 16.748 8.90305 16.6671 9.11083C16.6131 9.24908 16.6536 9.41198 16.646 9.55271C16.6272 9.571 16.6081 9.60203 16.5819 9.59289C16.5521 9.58236 16.5285 9.56491 16.5007 9.55659C16.4892 9.55327 16.474 9.55659 16.4611 9.54967C16.4439 9.5408 16.4397 9.51919 16.4417 9.50008C16.4262 9.47043 16.3962 9.45049 16.3658 9.44134C16.3014 9.50506 15.8537 9.07426 15.8532 9.02578C15.8265 9.01747 15.8104 8.96483 15.7736 8.96788C15.7213 8.97231 15.6353 8.97757 15.6016 8.92078C15.5496 8.83296 15.4625 8.85374 15.3911 8.81772C15.2511 8.7468 15.141 8.62961 14.969 8.62822C14.822 8.31129 14.5114 8.45092 14.5333 8.30907L14.2793 8.28469L13.8318 8.36753L11.6683 8.80692C11.6171 8.81744 11.5455 8.8288 11.4932 8.8349C11.107 8.87867 10.7304 8.9881 10.3504 9.05902L7.08432 9.6663C7.09724 9.6663 7.11523 9.70259 7.13912 9.69733C7.1557 9.69345 8.09358 9.78598 8.43112 9.74526L8.60144 9.72476L8.71358 9.69622L10.5668 9.68486C10.7189 9.68403 10.8428 9.6832 10.9966 9.68431L13.9232 9.7098L15.1657 9.73473C15.4909 9.74138 15.8073 9.74803 16.1367 9.74748C16.2582 9.74748 16.3714 9.71257 16.4748 9.75329C16.5271 9.77407 16.6089 9.73169 16.6651 9.74886C16.6969 9.75856 16.7388 9.73085 16.7517 9.70537L18.3582 9.70647L23.8165 9.67932L25.1931 9.65079C25.405 9.64636 25.6113 9.65217 25.8047 9.61588C25.8016 9.61477 25.7957 9.60702 25.7833 9.59344L25.7836 9.59316Z" fill="#E6E6E6"/>
<path d="M17.0358 10.2711C17.0381 10.2201 16.9942 10.183 16.9571 10.1644C16.9358 10.1539 16.9442 10.0838 16.8961 10.1038C16.8931 10.0758 16.7556 9.85137 16.6702 9.89431C16.6542 9.96052 16.7031 10.0209 16.7017 10.0838L16.6842 10.8451L16.6601 12.8232C16.6572 13.054 16.6252 13.2626 16.6581 13.4937C16.6842 13.6771 16.6587 14.5583 16.6553 14.8046L16.6277 16.7118C16.6241 16.9595 16.6114 17.1933 16.6148 17.4271C16.6008 17.4858 16.6308 17.5612 16.6103 17.618C16.5504 17.7853 16.5946 17.9698 16.5864 18.1466C16.5833 18.2095 16.5929 18.3017 16.5814 18.3607C16.6297 18.3893 16.6291 18.4801 16.5819 18.5095V18.8589C16.6502 18.9198 16.5752 19.0772 16.6438 19.1683C16.6643 19.1509 16.662 19.1273 16.6682 19.0888L17.2829 15.2354L17.9335 11.2959C17.7879 11.0479 17.5597 10.8712 17.359 10.6179C17.32 10.5689 17.0946 10.2517 17.0361 10.2714L17.0358 10.2711Z" fill="#E6E6E6"/>
<path d="M25.8791 9.61671C25.8783 9.63306 25.8786 9.6494 25.8797 9.66575C25.9103 9.66353 25.9938 9.68874 26 9.6386C25.9921 9.58818 25.9101 9.61588 25.8791 9.61671Z" fill="#E6E6E6"/>
<path d="M25.7979 9.69179C25.8114 9.68902 25.8446 9.69179 25.8328 9.66907C25.8204 9.6699 25.7878 9.6724 25.7979 9.69179Z" fill="#E6E6E6"/>
<path d="M16.5816 18.8586C16.4979 18.8963 16.6612 19.6326 16.4493 19.5324C16.4569 19.5736 16.5319 19.9967 16.4996 20H16.5558C16.524 19.7961 16.6446 19.4091 16.6438 19.1683C16.5752 19.0772 16.6502 18.9198 16.5819 18.8589L16.5816 18.8586Z" fill="#FEF7EB"/>
<path d="M25.8791 9.61671C25.8553 9.61754 25.828 9.61117 25.805 9.6156C25.6119 9.6519 25.4056 9.64608 25.1934 9.65051L23.8168 9.67905L18.3585 9.7062L16.752 9.70509C16.739 9.73085 16.6972 9.75828 16.6654 9.74858C16.6502 9.79513 16.6814 9.84943 16.6705 9.89459C16.7559 9.85164 16.8933 10.0763 16.8964 10.104C16.9448 10.0841 16.9361 10.1539 16.9574 10.1647C16.9948 10.1833 17.0384 10.2204 17.0361 10.2714C17.0946 10.252 17.3203 10.5689 17.359 10.6179C17.5597 10.8712 17.7876 11.0479 17.9335 11.2959L25.7982 9.69207C25.7884 9.6724 25.821 9.67018 25.8331 9.66935L25.88 9.66603C25.8789 9.64968 25.8786 9.63333 25.8794 9.61699L25.8791 9.61671Z" fill="#FEF7EB"/>
<path d="M16.5814 18.3605C16.5339 18.4192 16.5819 18.4524 16.5819 18.5092C16.6291 18.4799 16.6297 18.389 16.5814 18.3605Z" fill="#FEF7EB"/>
<path d="M16.6842 10.8451L16.7017 10.0838C16.7031 10.0209 16.6542 9.96052 16.6702 9.89431C16.6811 9.84915 16.6499 9.79485 16.6651 9.74831C16.6089 9.73113 16.5274 9.77352 16.4748 9.75274C16.3711 9.71174 16.2582 9.74664 16.1367 9.74692C15.8071 9.74775 15.4906 9.74083 15.1657 9.73418L13.9232 9.70924L10.9966 9.68376C10.8431 9.68237 10.7189 9.6832 10.5668 9.68431L8.71358 9.69567L8.60144 9.72421L8.43112 9.74471C8.09358 9.78543 7.1557 9.6929 7.13912 9.69678C7.11523 9.70232 7.09724 9.66575 7.08432 9.66575H7V9.72116C7.08544 9.7195 7.17481 9.72753 7.27093 9.74692L8.40526 9.97354L14.9336 11.3272C14.9321 11.3294 14.9324 11.3299 14.9341 11.3297L15.3186 13.4612L15.6567 15.2399L16.4496 19.5321C16.6615 19.6324 16.4982 18.896 16.5819 18.8583V18.509C16.5819 18.4522 16.5341 18.4189 16.5814 18.3602C16.5932 18.3012 16.5836 18.2092 16.5864 18.146C16.5949 17.9693 16.5504 17.7848 16.6103 17.6174C16.6305 17.5606 16.6005 17.4853 16.6148 17.4266C16.6114 17.1927 16.6241 16.9589 16.6277 16.7112L16.6553 14.8041C16.6589 14.5578 16.6842 13.6765 16.6581 13.4931C16.6252 13.262 16.6572 13.0537 16.6601 12.8227L16.6842 10.8446L16.6842 10.8451Z" fill="#B9A951"/>
<path d="M14.969 8.62795C15.1413 8.62933 15.2511 8.74652 15.3911 8.81744C15.4625 8.85374 15.5499 8.83296 15.6016 8.9205C15.6353 8.9773 15.7213 8.97203 15.7736 8.9676C15.8104 8.96455 15.8265 9.01719 15.8532 9.0255C15.854 9.07426 16.3017 9.50479 16.3658 9.44107C16.3962 9.44993 16.4262 9.46988 16.4417 9.4998C16.4394 9.51892 16.4436 9.54053 16.4611 9.54939C16.474 9.55604 16.4892 9.55299 16.5007 9.55632C16.5285 9.56463 16.5521 9.58208 16.5819 9.59261C16.6081 9.60175 16.6272 9.57072 16.646 9.55244C16.6536 9.4117 16.6134 9.2488 16.6671 9.11055C16.748 8.90277 16.6547 8.70663 16.653 8.50189L16.6415 7.12222C16.6974 7.0959 16.6463 7.00918 16.6665 6.97178L16.6401 6.97843V2.51222L16.6376 2.10719V1.62818C16.6376 1.53953 16.6365 1.44755 16.6376 1.3589L16.6488 0.634705L16.6171 0.631381L16.6095 0.29976C16.6089 0.277597 16.6193 0.261251 16.6291 0.255711C16.6367 0.251278 16.6497 0.251832 16.6606 0.252109C16.6424 0.173983 16.666 0.0808965 16.6008 0L14.8967 8.16889L14.2793 8.28441L14.5333 8.30879C14.5111 8.45064 14.8217 8.31129 14.969 8.62795Z" fill="#B9A951"/>
<path d="M25.9857 18.3635L25.9718 13.8312L27.3584 13.827L27.3599 14.3051C27.6798 13.9443 28.119 13.7629 28.6779 13.7611C29.0035 13.7602 29.2914 13.7983 29.5415 13.8756C29.792 13.953 29.9919 14.0544 30.1418 14.1791C30.2916 14.3042 30.4149 14.4536 30.5115 14.6272C30.6082 14.8012 30.6737 14.9727 30.7085 15.1421C30.7429 15.3119 30.7607 15.4924 30.7613 15.6841L30.7695 18.3485L29.3609 18.3527L29.3527 15.6883C29.3518 15.3695 29.2923 15.1317 29.1745 14.9739C29.0567 14.8164 28.8579 14.7382 28.5788 14.7391C28.4302 14.7397 28.2861 14.7673 28.1465 14.8221C28.007 14.8773 27.878 14.9601 27.7595 15.0711C27.6411 15.182 27.5457 15.3335 27.4735 15.5257C27.4013 15.7177 27.3656 15.9393 27.3662 16.19L27.3729 18.3587L25.9863 18.3629L25.9857 18.3635Z" fill="#B9A951"/>
<path d="M31.3374 16.1076C31.3362 15.6826 31.4368 15.2891 31.6392 14.9271C31.8416 14.5651 32.1319 14.2736 32.5104 14.0526C32.8886 13.8315 33.3155 13.7203 33.7909 13.7191C34.1477 13.7179 34.4815 13.7821 34.7923 13.9107C35.1032 14.0397 35.3654 14.2121 35.5787 14.4284C35.7916 14.6446 35.959 14.8971 36.0804 15.1859C36.2016 15.4747 36.2629 15.7771 36.2638 16.0926C36.2647 16.4054 36.2055 16.705 36.0862 16.9917C35.9665 17.2784 35.801 17.5288 35.5892 17.7433C35.3775 17.958 35.1165 18.1289 34.8062 18.2567C34.496 18.3845 34.1625 18.4489 33.806 18.4501C33.4493 18.4513 33.1155 18.3887 32.8046 18.263C32.4938 18.137 32.2325 17.9676 32.0207 17.7541C31.809 17.5408 31.6425 17.2913 31.5214 17.0055C31.4 16.7197 31.3389 16.4204 31.338 16.1076H31.3374ZM32.6346 16.1037C32.6361 16.558 32.7448 16.9044 32.9608 17.1428C33.1771 17.3813 33.4574 17.4997 33.8024 17.4988C34.1471 17.4976 34.4277 17.3774 34.644 17.1377C34.8603 16.8981 34.9676 16.5511 34.9663 16.0968C34.9648 15.6394 34.8552 15.2915 34.6377 15.0534C34.4199 14.8149 34.1386 14.6965 33.794 14.6974C33.4493 14.6986 33.1696 14.8188 32.9548 15.0585C32.74 15.2981 32.6334 15.6466 32.6349 16.104L32.6346 16.1037Z" fill="#B9A951"/>
<path d="M36.5765 17.1182L37.622 16.3892C37.6223 16.5073 37.6398 16.6258 37.6742 16.7452C37.7087 16.8645 37.7612 16.9818 37.8313 17.0967C37.9014 17.2115 38.0014 17.3048 38.1307 17.3768C38.2603 17.4487 38.411 17.4844 38.5835 17.4838C38.7795 17.4832 38.9445 17.4326 39.078 17.3318C39.2115 17.231 39.278 17.0937 39.2774 16.9197C39.2774 16.8576 39.262 16.8018 39.2324 16.7518C39.2025 16.7017 39.168 16.6597 39.1294 16.6258C39.0907 16.5919 39.0245 16.5553 38.9306 16.5157C38.8369 16.4761 38.7557 16.4456 38.6874 16.4237C38.6188 16.4018 38.5104 16.3673 38.3618 16.3208C38.1446 16.2596 37.9573 16.196 37.7996 16.13C37.6419 16.0641 37.4854 15.9792 37.3308 15.8748C37.1758 15.7705 37.0574 15.6427 36.9752 15.4909C36.893 15.3392 36.8517 15.1676 36.851 14.9757C36.8498 14.6188 37.0178 14.3156 37.3543 14.067C37.6908 13.818 38.0911 13.693 38.5548 13.6915C38.9768 13.6903 39.3447 13.7785 39.6589 13.956C39.9731 14.1336 40.1691 14.3771 40.2474 14.6866L39.0717 15.0621C39.0653 14.9352 39.0239 14.8248 38.9481 14.7304C38.872 14.6362 38.7418 14.5894 38.5575 14.59C38.4177 14.5903 38.3029 14.6233 38.2122 14.6884C38.1219 14.7535 38.0769 14.8482 38.0772 14.9721C38.0775 15.0843 38.1328 15.1799 38.243 15.2594C38.3533 15.3389 38.5201 15.4121 38.743 15.4792C39.1862 15.6079 39.5091 15.7234 39.7115 15.8259C40.2591 16.1076 40.5353 16.477 40.5398 16.9344C40.5413 17.4008 40.3752 17.767 40.0417 18.0336C39.7082 18.3002 39.2233 18.4345 38.5874 18.4363C38.115 18.4378 37.6866 18.3146 37.3024 18.0663C36.9181 17.8182 36.6764 17.5024 36.5774 17.1191L36.5765 17.1182Z" fill="#B9A951"/>
<path d="M40.8579 14.7949L40.8546 13.7503L41.6481 13.7479L41.6427 12.0042L43.0293 12L43.0347 13.7437L44.3678 13.7395L44.3711 14.7841L43.038 14.7883L43.0444 16.8231C43.045 17.0211 43.0839 17.1716 43.1616 17.2751C43.2392 17.3783 43.3434 17.4299 43.4742 17.4293C43.5247 17.4293 43.573 17.4188 43.6189 17.3978C43.6648 17.3771 43.7026 17.354 43.7322 17.3288C43.7618 17.3036 43.7965 17.2622 43.8364 17.2043C43.8763 17.1467 43.9053 17.1015 43.9231 17.0688C43.9409 17.0361 43.9712 16.9776 44.014 16.8933C44.0569 16.809 44.0872 16.7521 44.105 16.7224L45.1635 17.3267C45.0955 17.4625 45.0158 17.5876 44.9239 17.7016C44.8321 17.8155 44.7194 17.9259 44.5862 18.0324C44.4527 18.1391 44.2905 18.2237 44.0986 18.2861C43.9071 18.3488 43.6999 18.3803 43.4769 18.3809C43.2096 18.3818 42.971 18.3542 42.761 18.299C42.5514 18.2435 42.378 18.1688 42.2411 18.0747C42.104 17.9805 41.9916 17.8671 41.9034 17.7346C41.8155 17.602 41.7527 17.4625 41.7149 17.3162C41.6774 17.1701 41.6584 17.013 41.6578 16.8444L41.6515 14.7928L40.8579 14.7952V14.7949Z" fill="#B9A951"/>
<path d="M45.7102 18.3032L45.6963 13.771L47.0829 13.7668L47.0847 14.3777C47.3657 13.9107 47.7647 13.6762 48.2819 13.6747C48.7592 13.6732 49.1413 13.824 49.4283 14.127C49.715 14.4302 49.8591 14.7853 49.8603 15.1922C49.8603 15.2276 49.8575 15.278 49.8518 15.3428L48.4964 15.347C48.4991 15.3116 48.5006 15.2777 48.5006 15.2453C48.5 15.0771 48.455 14.946 48.3656 14.8518C48.2583 14.737 48.1064 14.68 47.9103 14.6806C47.6487 14.6815 47.4493 14.7817 47.3116 14.9811C47.1741 15.1805 47.0998 15.5047 47.0896 15.9534L47.0968 18.299L45.7102 18.3032Z" fill="#B9A951"/>
<path d="M50.4656 16.421L50.4575 13.7566L51.844 13.7524L51.8522 16.4168C51.8531 16.7326 51.912 16.9698 52.0283 17.1287C52.1446 17.2877 52.3395 17.3669 52.6132 17.366C53.3176 17.3639 53.6786 16.9053 53.6967 15.9906L53.6898 13.7467L55.0763 13.7425L55.0902 18.2747L53.7037 18.2789L53.7022 17.8185C53.4297 18.1676 53.0352 18.3428 52.518 18.3443C52.1969 18.3452 51.9138 18.3071 51.6685 18.2297C51.4229 18.1523 51.2257 18.0513 51.0768 17.9262C50.9278 17.8011 50.8061 17.6518 50.7121 17.4781C50.6179 17.3045 50.5535 17.1326 50.5188 16.9632C50.4841 16.7937 50.4665 16.6129 50.4659 16.4213L50.4656 16.421Z" fill="#B9A951"/>
<path d="M55.827 18.2723L55.8131 13.7401L57.1997 13.7359L57.2012 14.2139C57.5211 13.8531 57.9603 13.6717 58.5192 13.6699C59.3834 13.6672 59.9825 13.9341 60.3157 14.4701C60.6739 13.92 61.1981 13.6441 61.888 13.642C62.2212 13.6411 62.5157 13.6798 62.7716 13.7587C63.0275 13.8375 63.2332 13.9401 63.3882 14.0667C63.5431 14.1932 63.6694 14.3441 63.7667 14.5192C63.8639 14.6944 63.9307 14.8677 63.9667 15.0387C64.0029 15.2096 64.0213 15.3911 64.0219 15.583L64.0301 18.2474L62.5901 18.2519L62.5819 15.5875C62.581 15.2687 62.5191 15.0279 62.3964 14.8644C62.2738 14.701 62.0708 14.6197 61.788 14.6206C61.514 14.6215 61.2654 14.7085 61.0425 14.8818C60.8195 15.0552 60.673 15.3146 60.6026 15.6598L60.6108 18.2579L59.2022 18.2621L59.194 15.5977C59.1931 15.2789 59.1336 15.0411 59.0158 14.8833C58.898 14.7259 58.6992 14.6476 58.4201 14.6485C58.2715 14.6491 58.1274 14.6767 57.9878 14.7316C57.8483 14.7868 57.7193 14.8695 57.6008 14.9805C57.4824 15.0915 57.387 15.2429 57.3148 15.4352C57.2426 15.6271 57.2069 15.8487 57.2075 16.0995L57.2142 18.2681L55.8276 18.2723H55.827Z" fill="#B9A951"/>
<path d="M30.4786 24.9216L25.9733 36.9257L21.468 24.9216H16L23.817 43.6923H28.1299L35.9852 24.9216H30.4786Z" fill="#B9A951"/>
<path d="M68.8628 26.285C68.0523 25.6102 67.1309 25.0781 66.0981 24.6889C65.0656 24.2996 63.9609 24.1049 62.7845 24.1049C61.0331 24.1049 59.4514 24.5527 58.0394 25.4482C56.6278 26.3438 55.5167 27.544 54.7062 29.0495C53.8958 30.5548 53.4907 32.2289 53.4907 34.0718C53.4907 35.9148 53.8961 37.5499 54.7062 39.0551C54.767 39.1679 54.8301 39.2785 54.8941 39.388H52.9967C50.871 39.388 49.808 38.3326 49.808 36.2222V30.5968H54.0359L54.2024 24.81H49.808V21.4258L41.0294 30.5968H44.6511V36.6519C44.6511 38.9708 45.3006 40.7751 46.5998 42.065C47.8988 43.3546 49.7294 43.9997 52.0914 43.9997H54.8959V39.3907C55.6871 40.7397 56.7347 41.8287 58.0397 42.6567C58.263 42.7983 58.4913 42.9275 58.723 43.0469C58.7508 43.0613 58.7786 43.076 58.8064 43.0898C58.8602 43.1168 58.9143 43.1426 58.9686 43.1681C59.0016 43.1836 59.0345 43.1995 59.0674 43.2145C59.1197 43.2385 59.1725 43.2619 59.2254 43.2847C59.2611 43.3 59.2967 43.3153 59.3323 43.3303C59.3843 43.3519 59.4363 43.3732 59.4885 43.3939C59.5257 43.4086 59.5631 43.423 59.6006 43.4371C59.6522 43.4566 59.7039 43.4761 59.7562 43.4947C59.7951 43.5084 59.8341 43.5216 59.8734 43.5348C59.9247 43.5522 59.9761 43.5699 60.0277 43.5864C60.0691 43.5996 60.1108 43.6116 60.1525 43.6242C60.2026 43.6392 60.2528 43.6551 60.3035 43.6692C60.3914 43.6938 60.4797 43.7172 60.5685 43.7391C60.6117 43.7499 60.6555 43.7592 60.699 43.7691C60.7509 43.7811 60.8026 43.7931 60.8548 43.8042C60.8992 43.8135 60.944 43.8219 60.9887 43.8306C61.0409 43.8407 61.0929 43.8509 61.1454 43.8599C61.1899 43.8677 61.2346 43.8749 61.2796 43.8821C61.3333 43.8908 61.3871 43.8989 61.4412 43.9067C61.4853 43.913 61.5294 43.9187 61.5738 43.9244C61.6297 43.9316 61.6859 43.9379 61.7421 43.9439C61.785 43.9484 61.8282 43.9532 61.8714 43.9571C61.9309 43.9628 61.9907 43.9673 62.0508 43.9718C62.0913 43.9748 62.1317 43.9781 62.1722 43.9805C62.2396 43.9847 62.3073 43.9877 62.3749 43.9904C62.4091 43.9919 62.4426 43.9937 62.4767 43.9949C62.5788 43.9979 62.6815 44 62.7849 44C63.2996 44 63.8005 43.964 64.2877 43.892C64.4965 43.8611 64.7028 43.8237 64.9064 43.7796C65.3139 43.6914 65.7111 43.5768 66.0984 43.4356C66.2842 43.3678 66.4651 43.2937 66.6437 43.2163C67.0856 43.025 67.5064 42.8058 67.9043 42.555C68.2393 42.3439 68.5589 42.1118 68.8628 41.8587V43.6107H74V24.4942L68.8628 26.285ZM68.796 34.9433C68.7691 35.1119 68.7344 35.2771 68.6915 35.4391C68.5915 35.8167 68.4477 36.1757 68.2598 36.5158C68.2329 36.5644 68.2054 36.6126 68.1767 36.6603C68.0777 36.8259 67.9695 36.9824 67.8553 37.133C67.8266 37.1705 67.7982 37.2083 67.7686 37.2448C67.575 37.4851 67.362 37.7061 67.1273 37.9058C66.8793 38.117 66.608 38.3053 66.3141 38.4706C66.2159 38.5258 66.1165 38.5773 66.0156 38.6256C65.7634 38.7462 65.5021 38.8455 65.232 38.9228C65.0698 38.9693 64.9046 39.008 64.7363 39.0392C64.3992 39.1013 64.0494 39.1322 63.6866 39.1322C63.0214 39.1322 62.4027 39.0248 61.8306 38.8101C61.6744 38.7516 61.5218 38.685 61.3726 38.6103C61.2732 38.5606 61.1754 38.5075 61.0787 38.4508C60.9823 38.3941 60.8884 38.3347 60.7968 38.2732C60.1564 37.8417 59.6359 37.291 59.2357 36.621C58.7783 35.8554 58.5493 35.0054 58.5493 34.0709C58.5493 33.1106 58.778 32.2475 59.2357 31.4818C59.6933 30.7161 60.3075 30.1127 61.0787 29.6715C61.8499 29.2304 62.7193 29.0096 63.6866 29.0096C64.6538 29.0096 65.5296 29.2301 66.3141 29.6715C67.0983 30.1127 67.7194 30.7161 68.1767 31.4818C68.6341 32.2475 68.8631 33.1106 68.8631 34.0709C68.8631 34.3711 68.8407 34.6617 68.796 34.9427V34.9433Z" fill="#B9A951"/>
<path d="M41.0297 24.9222H35.9852V30.5965H41.0297V24.9222Z" fill="#B9A951"/>
<path d="M35.9852 43.6749H41.0294L41.0297 30.5965L35.9852 35.8665V43.6749Z" fill="#B9A951"/>
</svg>
