<svg width="158" height="88" viewBox="0 0 158 88" fill="none" xmlns="http://www.w3.org/2000/svg">
<path d="M27.2025 17.4995L27.1646 5.03592L30.9418 5.02438L30.9459 6.33903C31.8174 5.34685 33.0139 4.84788 34.5363 4.84293C35.4234 4.84046 36.2076 4.9452 36.889 5.15799C37.5712 5.37077 38.116 5.64954 38.5242 5.99263C38.9323 6.33655 39.2681 6.74728 39.5314 7.22481C39.7947 7.70316 39.9733 8.17492 40.0679 8.64091C40.1618 9.10771 40.2103 9.60421 40.212 10.1312L40.2342 17.4583L36.3969 17.4699L36.3747 10.1428C36.3722 9.26607 36.2101 8.61204 35.8892 8.17822C35.5682 7.74523 35.0268 7.52997 34.2664 7.53244C33.8615 7.53409 33.469 7.60997 33.0888 7.7609C32.7086 7.91265 32.3572 8.14028 32.0346 8.44544C31.712 8.7506 31.452 9.1671 31.2553 9.69576C31.0586 10.2236 30.9615 10.8331 30.9632 11.5226L30.9813 17.4863L27.2041 17.4979L27.2025 17.4995Z" fill="#490076"/>
<path d="M41.7813 11.2958C41.778 10.1271 42.052 9.04503 42.6033 8.04956C43.1547 7.05409 43.9455 6.25243 44.9766 5.64459C46.0069 5.03675 47.1697 4.73077 48.465 4.72747C49.4368 4.72417 50.3462 4.90066 51.193 5.25448C52.0397 5.60912 52.754 6.08336 53.335 6.678C53.9152 7.27265 54.3711 7.96709 54.7019 8.76132C55.0319 9.55555 55.1989 10.3869 55.2014 11.2545C55.2038 12.1148 55.0426 12.9387 54.7175 13.7271C54.3916 14.5156 53.9407 15.2043 53.3638 15.794C52.7869 16.3845 52.0759 16.8546 51.2308 17.2059C50.3857 17.5573 49.4772 17.7346 48.5061 17.7379C47.5343 17.7412 46.6249 17.5688 45.7782 17.2233C44.9314 16.8769 44.2196 16.4109 43.6427 15.8237C43.0658 15.2373 42.6124 14.5511 42.2824 13.7651C41.9516 12.9791 41.7854 12.156 41.7829 11.2958H41.7813ZM45.3149 11.2851C45.319 12.5346 45.6152 13.4871 46.2036 14.1428C46.7928 14.7985 47.5565 15.1243 48.4963 15.1218C49.4352 15.1185 50.1997 14.7878 50.7889 14.1288C51.3781 13.4698 51.6702 12.5156 51.667 11.2661C51.6628 10.0083 51.3641 9.05163 50.7716 8.39678C50.1783 7.7411 49.4122 7.41533 48.4732 7.4178C47.5343 7.4211 46.7722 7.75183 46.1871 8.4108C45.6021 9.06978 45.3116 10.0281 45.3157 11.2859L45.3149 11.2851Z" fill="#490076"/>
<path d="M56.0531 14.0752L58.9012 12.0702C58.902 12.3952 58.9498 12.7209 59.0436 13.0492C59.1374 13.3774 59.2806 13.6999 59.4715 14.0158C59.6624 14.3317 59.9348 14.5882 60.287 14.7861C60.64 14.9841 61.0507 15.0822 61.5206 15.0806C62.0546 15.0789 62.5039 14.9395 62.8677 14.6624C63.2314 14.3853 63.4124 14.0076 63.4108 13.5292C63.4108 13.3585 63.3688 13.2051 63.2882 13.0673C63.2067 12.9296 63.1129 12.8141 63.0076 12.7209C62.9022 12.6277 62.722 12.5271 62.4661 12.4183C62.211 12.3094 61.9896 12.2253 61.8036 12.1651C61.6168 12.1049 61.3214 12.01 60.9165 11.8822C60.3249 11.7139 59.8147 11.5391 59.3851 11.3576C58.9555 11.1762 58.5293 10.9428 58.1079 10.6558C57.6858 10.3688 57.3632 10.0174 57.1394 9.60009C56.9155 9.18277 56.8028 8.71101 56.8011 8.18317C56.7978 7.20172 57.2554 6.36789 58.1721 5.68418C59.0888 4.99963 60.1792 4.65571 61.4424 4.65159C62.592 4.64829 63.5943 4.89077 64.4501 5.37902C65.306 5.86727 65.84 6.53697 66.0532 7.38811L62.8504 8.4207C62.8331 8.07183 62.7204 7.76832 62.5138 7.50852C62.3064 7.24955 61.9518 7.12089 61.4498 7.12254C61.0688 7.12337 60.7561 7.21409 60.5092 7.39306C60.2631 7.57203 60.1405 7.83265 60.1413 8.17327C60.1422 8.48173 60.2928 8.74482 60.5931 8.96338C60.8935 9.18194 61.3477 9.38318 61.9551 9.56792C63.1623 9.92174 64.042 10.2393 64.5933 10.5213C66.0853 11.2958 66.8374 12.3119 66.8498 13.5696C66.8539 14.8521 66.4013 15.8591 65.4928 16.5923C64.5843 17.3255 63.2635 17.695 61.5313 17.7C60.2442 17.7041 59.0773 17.3651 58.0306 16.6822C56.9838 16.0002 56.3255 15.1317 56.0556 14.0777L56.0531 14.0752Z" fill="#490076"/>
<path d="M67.7163 7.68585L67.7073 4.81324L69.869 4.80664L69.8542 0.0115465L73.6314 0L73.6462 4.7951L77.2778 4.78355L77.2868 7.65615L73.6553 7.6677L73.6726 13.2636C73.6742 13.808 73.7804 14.222 73.9919 14.5065C74.2034 14.7902 74.4873 14.9321 74.8436 14.9304C74.981 14.9304 75.1127 14.9016 75.2378 14.8439C75.3628 14.7869 75.4657 14.7234 75.5464 14.6542C75.627 14.5849 75.7216 14.4711 75.8303 14.3119C75.9389 14.1535 76.0179 14.029 76.0664 13.9391C76.115 13.8492 76.1973 13.6884 76.3141 13.4566C76.431 13.2249 76.5133 13.0682 76.5618 12.9865L79.4453 14.6484C79.2602 15.022 79.0429 15.3659 78.7928 15.6793C78.5426 15.9927 78.2356 16.2962 77.8727 16.589C77.509 16.8826 77.0671 17.1152 76.5445 17.2868C76.0228 17.4591 75.4583 17.5457 74.851 17.5474C74.1227 17.5499 73.4726 17.474 72.9007 17.3222C72.3296 17.1696 71.8572 16.9643 71.4844 16.7053C71.1108 16.4463 70.8047 16.1346 70.5644 15.77C70.3249 15.4055 70.1538 15.022 70.0509 14.6195C69.9489 14.2179 69.897 13.7857 69.8954 13.3222L69.8781 7.68007L67.7163 7.68667V7.68585Z" fill="#490076"/>
<path d="M80.9348 17.3338L80.8969 4.87015L84.6741 4.8586L84.6791 6.53862C85.4444 5.25448 86.5315 4.60953 87.9403 4.6054C89.2405 4.60128 90.2815 5.01613 91.0633 5.84913C91.8442 6.68295 92.2367 7.65945 92.24 8.77864C92.24 8.87596 92.2326 9.01452 92.217 9.19266L88.5246 9.20421C88.532 9.10689 88.5361 9.01369 88.5361 8.92462C88.5344 8.46194 88.4118 8.10152 88.1683 7.84255C87.8761 7.52667 87.4622 7.36997 86.9281 7.37162C86.2155 7.37409 85.6723 7.64956 85.2971 8.19802C84.9227 8.74647 84.7202 9.63803 84.6923 10.8719L84.712 17.3222L80.9348 17.3338Z" fill="#490076"/>
<path d="M93.8892 12.1576L93.867 4.83056L97.6441 4.81901L97.6664 12.1461C97.6688 13.0146 97.8293 13.6669 98.1461 14.104C98.4629 14.5412 98.9937 14.7589 99.7393 14.7564C101.658 14.7507 102.642 13.4896 102.691 10.9741L102.672 4.80334L106.449 4.7918L106.487 17.2554L102.71 17.267L102.706 16.001C101.964 16.961 100.889 17.4426 99.4801 17.4468C98.6053 17.4492 97.8342 17.3445 97.166 17.1317C96.497 16.9189 95.9596 16.641 95.5539 16.2971C95.1482 15.9531 94.8166 15.5424 94.5607 15.0649C94.3039 14.5874 94.1286 14.1148 94.034 13.6488C93.9394 13.1828 93.8916 12.6855 93.89 12.1585L93.8892 12.1576Z" fill="#490076"/>
<path d="M108.494 17.2488L108.456 4.7852L112.234 4.77365L112.238 6.0883C113.109 5.09613 114.306 4.59716 115.828 4.59221C118.182 4.58479 119.814 5.31881 120.722 6.79264C121.698 5.28005 123.126 4.52128 125.005 4.51551C125.913 4.51303 126.715 4.61942 127.412 4.83633C128.109 5.05324 128.67 5.33531 129.092 5.68335C129.514 6.0314 129.858 6.44625 130.123 6.9279C130.388 7.40955 130.57 7.88626 130.668 8.35637C130.767 8.82647 130.817 9.32545 130.818 9.85329L130.841 17.1804L126.918 17.1927L126.896 9.86566C126.893 8.98895 126.724 8.32668 126.39 7.87719C126.056 7.4277 125.503 7.20419 124.733 7.20667C123.987 7.20914 123.309 7.44832 122.702 7.92502C122.095 8.40173 121.696 9.11514 121.504 10.0644L121.526 17.2092L117.689 17.2208L117.667 9.8937C117.664 9.01699 117.502 8.36296 117.181 7.92915C116.86 7.49615 116.319 7.28089 115.558 7.28337C115.153 7.28502 114.761 7.36089 114.381 7.51182C114 7.66358 113.649 7.89121 113.326 8.19637C113.004 8.50152 112.744 8.91802 112.547 9.44669C112.35 9.97453 112.253 10.584 112.255 11.2735L112.273 17.2373L108.496 17.2488H108.494Z" fill="#490076"/>
<path d="M39.4416 35.5344L27.1686 68.5458L14.8956 35.5344H0L21.2946 87.1538H33.0434L54.4425 35.5344H39.4416Z" fill="#490076"/>
<path d="M144.005 39.2837C141.798 37.428 139.288 35.9649 136.474 34.8943C133.661 33.8238 130.652 33.2886 127.448 33.2886C122.676 33.2886 118.368 34.5199 114.521 36.9826C110.676 39.4453 107.649 42.746 105.441 46.8862C103.233 51.0256 102.13 55.6294 102.13 60.6975C102.13 65.7656 103.234 70.2621 105.441 74.4015C105.607 74.7116 105.779 75.016 105.953 75.317H100.784C94.9934 75.317 92.0975 72.4147 92.0975 66.6109V51.1411H103.615L104.069 35.2276H92.0975V25.9211L68.1836 51.1411H78.0495V67.7928C78.0495 74.1698 79.8188 79.1315 83.3582 82.6787C86.8967 86.2251 91.8836 87.9992 98.318 87.9992H105.958V75.3244C108.113 79.0341 110.967 82.0288 114.522 84.3059C115.13 84.6952 115.752 85.0507 116.383 85.3789C116.459 85.4185 116.535 85.4589 116.611 85.4969C116.757 85.5711 116.904 85.642 117.052 85.7121C117.142 85.755 117.232 85.7987 117.322 85.84C117.464 85.906 117.608 85.9703 117.752 86.033C117.849 86.075 117.946 86.1171 118.043 86.1583C118.185 86.2177 118.326 86.2763 118.469 86.3332C118.57 86.3736 118.672 86.4132 118.774 86.4519C118.915 86.5055 119.055 86.5592 119.198 86.6103C119.304 86.6482 119.41 86.6845 119.517 86.7208C119.657 86.7686 119.797 86.8173 119.938 86.8627C120.05 86.899 120.164 86.9319 120.278 86.9666C120.414 87.0078 120.551 87.0515 120.689 87.0903C120.928 87.1579 121.169 87.2223 121.411 87.2825C121.528 87.3122 121.648 87.3377 121.766 87.3649C121.908 87.3979 122.048 87.4309 122.191 87.4614C122.312 87.487 122.434 87.5101 122.555 87.534C122.698 87.5621 122.839 87.5901 122.982 87.6148C123.103 87.6363 123.225 87.6561 123.348 87.6759C123.494 87.6998 123.641 87.7221 123.788 87.7435C123.908 87.7608 124.028 87.7765 124.149 87.7922C124.302 87.812 124.455 87.8293 124.608 87.8458C124.725 87.8581 124.842 87.8713 124.96 87.8821C125.122 87.8977 125.285 87.9101 125.449 87.9225C125.559 87.9307 125.669 87.9398 125.78 87.9464C125.963 87.9579 126.147 87.9662 126.332 87.9736C126.425 87.9777 126.516 87.9827 126.609 87.986C126.887 87.9942 127.167 88 127.448 88C128.851 88 130.215 87.901 131.542 87.7031C132.111 87.6181 132.673 87.515 133.228 87.3938C134.338 87.1513 135.42 86.8363 136.475 86.4478C136.981 86.2614 137.474 86.0577 137.96 85.8449C139.164 85.3187 140.311 84.7159 141.394 84.0264C142.307 83.4457 143.178 82.8074 144.005 82.1113V86.9295H158V34.3591L144.005 39.2837ZM143.824 63.0942C143.75 63.5577 143.656 64.0121 143.539 64.4575C143.267 65.4959 142.875 66.4831 142.363 67.4184C142.29 67.552 142.215 67.6848 142.137 67.8159C141.867 68.2712 141.572 68.7017 141.261 69.1157C141.183 69.2188 141.106 69.3227 141.025 69.4233C140.497 70.084 139.917 70.6918 139.278 71.2411C138.602 71.8217 137.863 72.3396 137.063 72.7941C136.795 72.9458 136.524 73.0877 136.249 73.2205C135.562 73.552 134.851 73.825 134.115 74.0378C133.673 74.1656 133.223 74.272 132.764 74.3578C131.846 74.5285 130.893 74.6135 129.905 74.6135C128.093 74.6135 126.407 74.3182 124.849 73.7277C124.423 73.5669 124.008 73.3838 123.601 73.1784C123.331 73.0415 123.064 72.8955 122.801 72.7397C122.538 72.5838 122.282 72.4205 122.033 72.2514C120.288 71.0646 118.87 69.5503 117.78 67.7079C116.534 65.6023 115.91 63.2649 115.91 60.695C115.91 58.0542 116.533 55.6805 117.78 53.5749C119.027 51.4694 120.7 49.8099 122.801 48.5967C124.901 47.3835 127.27 46.7765 129.905 46.7765C132.54 46.7765 134.925 47.3827 137.063 48.5967C139.199 49.8099 140.891 51.4694 142.137 53.5749C143.383 55.6805 144.006 58.0542 144.006 60.695C144.006 61.5206 143.945 62.3198 143.824 63.0925V63.0942Z" fill="#490076"/>
<path d="M68.1844 35.536H54.4425V51.1403H68.1844V35.536Z" fill="#490076"/>
<path d="M54.4425 87.106H68.1836L68.1844 51.1403L54.4425 65.6328V87.106Z" fill="#490076"/>
</svg>
