<svg width="86" height="48" viewBox="0 0 86 48" fill="none" xmlns="http://www.w3.org/2000/svg">
<path d="M14.8064 9.54521L14.7858 2.74687L16.8417 2.74057L16.844 3.45765C17.3183 2.91647 17.9696 2.6443 18.7982 2.6416C19.2811 2.64025 19.708 2.69738 20.0788 2.81345C20.4502 2.92951 20.7467 3.08157 20.9688 3.26871C21.191 3.4563 21.3738 3.68033 21.5171 3.94081C21.6604 4.20173 21.7576 4.45905 21.8091 4.71322C21.8602 4.96784 21.8866 5.23866 21.8875 5.52612L21.8996 9.52271L19.811 9.52901L19.7989 5.53242C19.7975 5.05422 19.7093 4.69748 19.5346 4.46085C19.3599 4.22467 19.0652 4.10725 18.6513 4.1086C18.4309 4.1095 18.2173 4.15089 18.0103 4.23322C17.8034 4.31599 17.6122 4.44015 17.4366 4.6066C17.261 4.77305 17.1194 5.00023 17.0124 5.2886C16.9053 5.57651 16.8525 5.90896 16.8534 6.28505L16.8632 9.53801L14.8073 9.54431L14.8064 9.54521Z" fill="#1D1B20"/>
<path d="M22.7417 6.16133C22.7399 5.52388 22.8891 4.93365 23.1892 4.39067C23.4893 3.84768 23.9197 3.41042 24.481 3.07887C25.0417 2.74732 25.6747 2.58042 26.3797 2.57862C26.9087 2.57682 27.4036 2.67309 27.8645 2.86608C28.3254 3.05952 28.7142 3.31819 29.0304 3.64255C29.3462 3.9669 29.5944 4.34568 29.7744 4.7789C29.954 5.21212 30.045 5.66558 30.0463 6.13884C30.0477 6.60805 29.9599 7.05746 29.7829 7.48753C29.6056 7.9176 29.3601 8.29324 29.0461 8.61489C28.7321 8.93699 28.3451 9.19341 27.8851 9.38505C27.4251 9.5767 26.9306 9.67342 26.4021 9.67522C25.8731 9.67702 25.3781 9.583 24.9172 9.3945C24.4563 9.20556 24.0689 8.95139 23.7549 8.63108C23.4409 8.31123 23.1941 7.93694 23.0145 7.50822C22.8344 7.0795 22.7439 6.63054 22.7426 6.16133H22.7417ZM24.665 6.15548C24.6673 6.83703 24.8285 7.35662 25.1488 7.71426C25.4695 8.0719 25.8852 8.2496 26.3967 8.24825C26.9078 8.24645 27.3239 8.06606 27.6446 7.70661C27.9653 7.34717 28.1243 6.82668 28.1225 6.14514C28.1203 5.4591 27.9577 4.93725 27.6352 4.58006C27.3122 4.22242 26.8952 4.04472 26.3841 4.04607C25.8731 4.04787 25.4583 4.22827 25.1398 4.58771C24.8214 4.94715 24.6633 5.46989 24.6655 6.15593L24.665 6.15548Z" fill="#1D1B20"/>
<path d="M30.5099 7.67737L32.0602 6.58375C32.0606 6.761 32.0866 6.9387 32.1376 7.11774C32.1887 7.29679 32.2666 7.47268 32.3706 7.64498C32.4745 7.81728 32.6227 7.95719 32.8144 8.06516C33.0066 8.17312 33.2301 8.22666 33.4859 8.22576C33.7766 8.22486 34.0211 8.14883 34.2191 7.99768C34.4171 7.84652 34.5156 7.64048 34.5147 7.37956C34.5147 7.28644 34.4919 7.20277 34.448 7.12764C34.4037 7.05251 34.3526 6.98953 34.2953 6.9387C34.2379 6.88786 34.1398 6.83298 34.0005 6.7736C33.8617 6.71422 33.7412 6.66833 33.64 6.63549C33.5383 6.60265 33.3775 6.55091 33.1571 6.48119C32.835 6.38941 32.5573 6.29404 32.3235 6.19507C32.0897 6.0961 31.8577 5.96879 31.6284 5.81224C31.3986 5.65569 31.223 5.46404 31.1012 5.23641C30.9793 5.00878 30.918 4.75146 30.9171 4.46355C30.9153 3.92821 31.1643 3.4734 31.6633 3.10046C32.1623 2.72707 32.7558 2.53948 33.4433 2.53723C34.0691 2.53543 34.6146 2.66769 35.0805 2.93401C35.5463 3.20033 35.837 3.56562 35.953 4.02988L34.2097 4.59311C34.2003 4.40282 34.1389 4.23727 34.0265 4.09556C33.9136 3.9543 33.7206 3.88412 33.4473 3.88502C33.24 3.88547 33.0698 3.93496 32.9354 4.03258C32.8015 4.1302 32.7347 4.27236 32.7352 4.45815C32.7356 4.6264 32.8176 4.7699 32.9811 4.88912C33.1446 5.00833 33.3918 5.1181 33.7224 5.21887C34.3795 5.41186 34.8583 5.58506 35.1584 5.73891C35.9705 6.16133 36.3799 6.71556 36.3866 7.40161C36.3888 8.10114 36.1425 8.65043 35.648 9.05036C35.1535 9.45028 34.4346 9.65182 33.4917 9.65452C32.7912 9.65677 32.156 9.47188 31.5863 9.09939C31.0165 8.72736 30.6582 8.25365 30.5113 7.67872L30.5099 7.67737Z" fill="#1D1B20"/>
<path d="M36.8582 4.19228L36.8533 2.6254L38.03 2.62181L38.0219 0.00629809L40.0779 0L40.0859 2.61551L42.0626 2.60921L42.0675 4.17608L40.0908 4.18238L40.1003 7.23471C40.1012 7.53162 40.1589 7.75745 40.274 7.91265C40.3892 8.0674 40.5437 8.14478 40.7376 8.14388C40.8124 8.14388 40.8841 8.12814 40.9522 8.09665C41.0203 8.06561 41.0763 8.03096 41.1202 7.99318C41.1641 7.95539 41.2156 7.89331 41.2747 7.80648C41.3338 7.72011 41.3768 7.65218 41.4032 7.60315C41.4297 7.55411 41.4745 7.46639 41.5381 7.33998C41.6017 7.21356 41.6465 7.12809 41.6729 7.08355L43.2424 7.99003C43.1416 8.19382 43.0234 8.38141 42.8872 8.55236C42.751 8.72331 42.584 8.88886 42.3864 9.04856C42.1884 9.20871 41.9479 9.33557 41.6635 9.42914C41.3795 9.52316 41.0722 9.5704 40.7417 9.5713C40.3453 9.57265 39.9914 9.53126 39.6801 9.44849C39.3693 9.36526 39.1121 9.25325 38.9092 9.11199C38.7059 8.97073 38.5393 8.80068 38.4085 8.60184C38.2781 8.403 38.185 8.19382 38.129 7.97428C38.0734 7.7552 38.0452 7.51947 38.0443 7.26665L38.0349 4.18913L36.8582 4.19273V4.19228Z" fill="#1D1B20"/>
<path d="M44.0531 9.45478L44.0325 2.65644L46.0884 2.65015L46.0911 3.56652C46.5077 2.86608 47.0994 2.51429 47.8662 2.51204C48.5739 2.50979 49.1406 2.73607 49.5661 3.19043C49.9911 3.64524 50.2048 4.17788 50.2066 4.78835C50.2066 4.84143 50.2026 4.91701 50.1941 5.01418L48.1842 5.02048C48.1883 4.96739 48.1905 4.91656 48.1905 4.86797C48.1896 4.6156 48.1229 4.41901 47.9903 4.27775C47.8313 4.10546 47.606 4.01998 47.3153 4.02088C46.9274 4.02223 46.6318 4.17249 46.4275 4.47164C46.2237 4.7708 46.1135 5.25711 46.0983 5.9301L46.1091 9.44849L44.0531 9.45478Z" fill="#1D1B20"/>
<path d="M51.1042 6.63144L51.0921 2.63485L53.1481 2.62855L53.1602 6.62514C53.1615 7.09885 53.2489 7.45469 53.4213 7.69312C53.5937 7.93155 53.8827 8.05031 54.2885 8.04896C55.333 8.04581 55.8683 7.35797 55.8951 5.98589L55.8848 2.62001L57.9408 2.61371L57.9614 9.41205L55.9054 9.41835L55.9032 8.72781C55.4992 9.25145 54.9142 9.51417 54.1474 9.51642C53.6712 9.51777 53.2515 9.46063 52.8878 9.34457C52.5237 9.2285 52.2312 9.0769 52.0104 8.88931C51.7895 8.70171 51.609 8.47768 51.4697 8.21721C51.33 7.95674 51.2346 7.69897 51.1831 7.44479C51.1315 7.19062 51.1056 6.91935 51.1047 6.63189L51.1042 6.63144Z" fill="#1D1B20"/>
<path d="M59.0539 9.40845L59.0332 2.61011L61.0892 2.60381L61.0914 3.32089C61.5658 2.77971 62.217 2.50754 63.0457 2.50484C64.3272 2.50079 65.2154 2.90117 65.7094 3.70508C66.2407 2.88003 67.0178 2.46615 68.0409 2.463C68.5349 2.46165 68.9716 2.51969 69.351 2.638C69.7304 2.75631 70.0354 2.91017 70.2652 3.10001C70.495 3.28985 70.6822 3.51613 70.8264 3.77885C70.9707 4.04157 71.0697 4.3016 71.123 4.55802C71.1767 4.81444 71.204 5.08661 71.2049 5.37452L71.217 9.37111L69.0818 9.37786L69.0697 5.38127C69.0684 4.90306 68.9765 4.54182 68.7947 4.29665C68.6128 4.05147 68.3118 3.92956 67.8926 3.93091C67.4863 3.93226 67.1177 4.06272 66.7871 4.32274C66.4566 4.58276 66.2393 4.97189 66.135 5.48969L66.1471 9.38686L64.0584 9.39315L64.0463 5.39656C64.045 4.91836 63.9567 4.56162 63.7821 4.32499C63.6074 4.08881 63.3126 3.9714 62.8988 3.97275C62.6784 3.97365 62.4647 4.01503 62.2578 4.09736C62.0509 4.18013 61.8596 4.3043 61.684 4.47074C61.5084 4.63719 61.3669 4.86438 61.2598 5.15274C61.1528 5.44065 61.0999 5.7731 61.1008 6.14919L61.1107 9.40215L59.0547 9.40845H59.0539Z" fill="#1D1B20"/>
<path d="M21.4682 19.3824L14.788 37.3886L8.10774 19.3824H0L11.5907 47.5384H17.9856L29.6333 19.3824H21.4682Z" fill="#1D1B20"/>
<path d="M78.3827 21.4275C77.181 20.4153 75.8148 19.6172 74.2834 19.0333C72.7524 18.4494 71.1144 18.1574 69.3702 18.1574C66.7732 18.1574 64.4279 18.829 62.3343 20.1723C60.2412 21.5156 58.5938 23.316 57.392 25.5743C56.1903 27.8322 55.5896 30.3433 55.5896 33.1077C55.5896 35.8721 56.1907 38.3248 57.392 40.5826C57.482 40.7518 57.5757 40.9178 57.6706 41.082H54.8572C51.7053 41.082 50.129 39.4989 50.129 36.3332V27.8951H56.3981L56.6449 19.215H50.129V14.1388L37.1126 27.8951H42.4827V36.9779C42.4827 40.4562 43.4457 43.1626 45.3722 45.0975C47.2982 47.0319 50.0126 47.9995 53.5148 47.9995H57.6733V41.086C58.8464 43.1095 60.3998 44.743 62.3348 45.9851C62.6658 46.1974 63.0044 46.3913 63.348 46.5703C63.3892 46.5919 63.4304 46.614 63.4716 46.6347C63.5513 46.6752 63.6315 46.7138 63.7121 46.7521C63.7609 46.7755 63.8098 46.7993 63.8586 46.8218C63.9361 46.8578 64.0145 46.8929 64.0928 46.9271C64.1457 46.95 64.1985 46.973 64.2514 46.9955C64.3284 47.0278 64.4055 47.0598 64.483 47.0908C64.5381 47.1129 64.5936 47.1345 64.6492 47.1556C64.7257 47.1848 64.8023 47.2141 64.8798 47.242C64.9376 47.2627 64.9954 47.2825 65.0536 47.3023C65.1298 47.3284 65.2059 47.3549 65.2825 47.3796C65.3439 47.3994 65.4057 47.4174 65.4675 47.4363C65.5418 47.4588 65.6162 47.4827 65.6915 47.5038C65.8218 47.5407 65.9526 47.5758 66.0843 47.6086C66.1483 47.6248 66.2133 47.6388 66.2778 47.6536C66.3548 47.6716 66.4314 47.6896 66.5089 47.7062C66.5747 47.7202 66.641 47.7328 66.7073 47.7458C66.7848 47.7611 66.8619 47.7764 66.9398 47.7899C67.0056 47.8016 67.0719 47.8124 67.1387 47.8232C67.2184 47.8363 67.2981 47.8484 67.3783 47.8601C67.4437 47.8695 67.5091 47.8781 67.5749 47.8866C67.6578 47.8974 67.7411 47.9069 67.8244 47.9159C67.888 47.9226 67.9521 47.9298 68.0161 47.9357C68.1044 47.9442 68.1931 47.951 68.2822 47.9577C68.3422 47.9622 68.4022 47.9672 68.4623 47.9708C68.5621 47.9771 68.6625 47.9816 68.7628 47.9856C68.8134 47.9879 68.8632 47.9906 68.9138 47.9924C69.0652 47.9968 69.2175 48 69.3706 48C70.1339 48 70.8765 47.946 71.599 47.8381C71.9085 47.7917 72.2145 47.7355 72.5164 47.6693C73.1206 47.5371 73.7096 47.3652 74.2838 47.1534C74.5593 47.0517 74.8276 46.9406 75.0923 46.8245C75.7476 46.5375 76.3716 46.2086 76.9615 45.8326C77.4582 45.5159 77.9321 45.1677 78.3827 44.788V47.4161H86V18.7413L78.3827 21.4275ZM78.2837 34.415C78.2439 34.6678 78.1924 34.9157 78.1288 35.1586C77.9805 35.725 77.7673 36.2635 77.4887 36.7737C77.4488 36.8465 77.4081 36.919 77.3655 36.9905C77.2186 37.2388 77.0582 37.4736 76.8889 37.6995C76.8464 37.7557 76.8043 37.8124 76.7604 37.8673C76.4733 38.2276 76.1575 38.5592 75.8094 38.8588C75.4417 39.1755 75.0395 39.458 74.6037 39.7059C74.4581 39.7886 74.3107 39.866 74.1611 39.9384C73.7871 40.1193 73.3997 40.2682 72.9992 40.3843C72.7587 40.454 72.5137 40.512 72.2642 40.5588C71.7643 40.6519 71.2456 40.6983 70.7077 40.6983C69.7214 40.6983 68.804 40.5372 67.9557 40.2151C67.7241 40.1274 67.4979 40.0275 67.2766 39.9155C67.1293 39.8408 66.9841 39.7612 66.8408 39.6762C66.6979 39.5912 66.5586 39.5021 66.4229 39.4099C65.4733 38.7625 64.7016 37.9366 64.1081 36.9316C63.4299 35.7831 63.0904 34.5081 63.0904 33.1064C63.0904 31.6659 63.4295 30.3712 64.1081 29.2227C64.7867 28.0742 65.6973 27.1691 66.8408 26.5073C67.9843 25.8456 69.2734 25.5145 70.7077 25.5145C72.1419 25.5145 73.4404 25.8451 74.6037 26.5073C75.7664 27.1691 76.6874 28.0742 77.3655 29.2227C78.0437 30.3712 78.3832 31.6659 78.3832 33.1064C78.3832 33.5567 78.35 33.9926 78.2837 34.4141V34.415Z" fill="#1D1B20"/>
<path d="M37.113 19.3833H29.6333V27.8947H37.113V19.3833Z" fill="#1D1B20"/>
<path d="M29.6333 47.5123H37.1126L37.113 27.8947L29.6333 35.7997V47.5123Z" fill="#1D1B20"/>
</svg>
