<svg width="85" height="28" viewBox="0 0 85 28" fill="none" xmlns="http://www.w3.org/2000/svg">
<path d="M15.7591 13.5295C15.8131 13.5574 15.8671 13.5845 15.922 13.6111C15.9251 13.6124 15.9278 13.6138 15.9309 13.6151C15.984 13.6408 16.0376 13.6652 16.0916 13.689C16.096 13.6908 16.1009 13.6931 16.1053 13.6949C16.158 13.7179 16.2106 13.74 16.2638 13.7611C16.2704 13.7639 16.2766 13.7661 16.2833 13.7688C16.3346 13.7891 16.3864 13.8089 16.4386 13.8278C16.4471 13.831 16.4555 13.8337 16.4643 13.8369C16.5148 13.8549 16.5657 13.8725 16.6166 13.8891C16.6272 13.8927 16.6379 13.8959 16.6485 13.8995C16.6976 13.9153 16.7472 13.9306 16.7968 13.945C16.8101 13.9486 16.8229 13.9522 16.8362 13.9563C16.884 13.9698 16.9318 13.9829 16.9801 13.995C16.9956 13.9991 17.0115 14.0027 17.0274 14.0068C17.0735 14.018 17.12 14.0293 17.1665 14.0397C17.1851 14.0437 17.2036 14.0473 17.2222 14.0514C17.2665 14.0608 17.3112 14.0699 17.3559 14.0784C17.3772 14.0825 17.3989 14.0861 17.4206 14.0897C17.4631 14.0973 17.5056 14.1046 17.5485 14.1113C17.5733 14.1149 17.5985 14.1185 17.6233 14.1217C17.6636 14.1275 17.7035 14.1329 17.7437 14.1379C17.7725 14.1415 17.8017 14.1442 17.8305 14.1474C17.8677 14.1514 17.9049 14.1555 17.9421 14.1591C17.9757 14.1622 18.0098 14.1645 18.0439 14.1667C18.0771 14.169 18.1099 14.1722 18.1435 14.174C18.1856 14.1767 18.2276 14.178 18.2701 14.1798C18.2962 14.1807 18.3219 14.1825 18.3485 14.1834C18.4176 14.1852 18.4866 14.1866 18.5561 14.1866C18.6256 14.1866 18.6956 14.1857 18.7646 14.1834C18.7925 14.1825 18.8195 14.1807 18.8474 14.1798C18.8886 14.178 18.9298 14.1767 18.9701 14.1744C19.0059 14.1722 19.0413 14.169 19.0772 14.1663C19.1091 14.164 19.1409 14.1618 19.1724 14.1591C19.2131 14.1555 19.2529 14.151 19.2932 14.1465C19.3193 14.1438 19.3455 14.1411 19.3716 14.1379C19.4159 14.1325 19.4592 14.1262 19.5031 14.1199C19.5248 14.1167 19.546 14.114 19.5677 14.1109C19.6146 14.1037 19.6611 14.0955 19.708 14.087C19.7258 14.0838 19.7435 14.0811 19.7612 14.0775C19.8108 14.0681 19.8595 14.0581 19.9082 14.0478C19.9223 14.0446 19.9369 14.0419 19.9511 14.0388C20.0024 14.0275 20.0534 14.0149 20.1043 14.0023C20.1158 13.9996 20.1268 13.9968 20.1384 13.9937C20.1915 13.9802 20.2442 13.9653 20.2969 13.9504C20.3057 13.9477 20.3141 13.9455 20.323 13.9432C20.3774 13.9274 20.4319 13.9103 20.4859 13.8927C20.4921 13.8905 20.4987 13.8887 20.5049 13.8869C20.5607 13.8684 20.6156 13.8495 20.6709 13.8296C20.6754 13.8278 20.6798 13.8265 20.6847 13.8247C20.7409 13.804 20.7971 13.7823 20.8529 13.7602C20.8555 13.7589 20.8586 13.758 20.8613 13.7571C20.918 13.7341 20.9746 13.7102 21.0309 13.6854C21.0326 13.6845 21.034 13.6841 21.0357 13.6832C21.0928 13.6579 21.1495 13.6314 21.2057 13.6043C21.2066 13.6043 21.2071 13.6039 21.2079 13.6034C21.2646 13.5759 21.3213 13.5475 21.3771 13.5178C21.4333 13.488 21.4895 13.4574 21.5448 13.4258C21.5723 13.4101 21.6002 13.3948 21.6281 13.3785C22.5374 12.8395 23.2603 12.1072 23.7982 11.1815C24.3357 10.2559 24.6044 9.21391 24.6044 8.05524C24.6044 6.89657 24.3357 5.82624 23.7982 4.89245C23.2608 3.95912 22.5374 3.21867 21.6281 2.67111C20.7188 2.124 19.6952 1.85044 18.557 1.85044C17.4188 1.85044 16.3948 2.124 15.4859 2.67111C14.5766 3.21822 13.8572 3.95867 13.3277 4.89245C12.7983 5.82578 12.5331 6.88035 12.5331 8.05524C12.5331 9.23013 12.7978 10.2563 13.3277 11.1815C13.8577 12.1072 14.5766 12.8395 15.4859 13.3785C15.5214 13.3993 15.5572 13.4191 15.5926 13.4394C15.6471 13.47 15.7015 13.4998 15.7569 13.5286C15.7582 13.5295 15.7595 13.53 15.7609 13.5309L15.7591 13.5295ZM18.5552 4.8911C19.4092 4.8911 20.1207 5.19305 20.6895 5.79649C21.2589 6.39994 21.5435 7.15255 21.5435 8.05389C21.5435 8.72268 21.3744 9.3099 21.0375 9.81645C20.9915 9.88585 20.9423 9.95435 20.8901 10.0211C20.8591 10.0603 20.8268 10.099 20.7936 10.1373C20.7604 10.1756 20.7258 10.2135 20.69 10.2504C20.5479 10.3992 20.3965 10.5294 20.2362 10.6412C19.9962 10.8088 19.7359 10.9341 19.4557 11.0179C19.1755 11.1018 18.8753 11.1437 18.5552 11.1437C18.2352 11.1437 17.9456 11.1018 17.6694 11.0179C17.4852 10.962 17.309 10.8877 17.1417 10.7944C16.8902 10.6547 16.6582 10.4735 16.4444 10.25C16.3731 10.1756 16.3067 10.099 16.2443 10.0202C16.1916 9.95345 16.1429 9.8854 16.0969 9.81555C16.0778 9.78716 16.0597 9.75831 16.042 9.72947C16.0167 9.68846 15.9928 9.64745 15.9694 9.60554C15.914 9.50459 15.8645 9.40093 15.8211 9.29458C15.6679 8.91737 15.5909 8.50365 15.5909 8.05299C15.5909 7.15165 15.8755 6.39904 16.4448 5.79559C17.0142 5.19215 17.7176 4.8902 18.5557 4.8902L18.5552 4.8911ZM22.0473 21.8678C22.0473 21.9065 22.0486 21.9448 22.0495 21.9831C22.0509 22.0327 22.0535 22.0818 22.0571 22.1301C22.0571 22.1323 22.0571 22.135 22.0575 22.1373C22.0606 22.1837 22.065 22.2301 22.0703 22.2756C22.0708 22.2801 22.0712 22.2846 22.0717 22.2891C22.0765 22.3329 22.0827 22.3761 22.0894 22.4194C22.0903 22.4257 22.0911 22.432 22.0925 22.4383C22.0991 22.4798 22.1066 22.5203 22.1146 22.5609C22.1164 22.569 22.1177 22.5767 22.1195 22.5848C22.1274 22.6235 22.1363 22.6623 22.1456 22.7001C22.1478 22.7096 22.1505 22.7191 22.1527 22.7285C22.162 22.765 22.1722 22.8011 22.1828 22.8371C22.1859 22.848 22.1894 22.8588 22.1925 22.8696C22.2031 22.9038 22.2142 22.9376 22.2257 22.9714C22.2302 22.9836 22.2346 22.9958 22.239 23.008C22.2505 23.04 22.2625 23.0719 22.2753 23.1035C22.2806 23.117 22.2864 23.1305 22.2921 23.1441C22.3045 23.1738 22.3174 23.2035 22.3311 23.2333C22.3377 23.2482 22.3453 23.2626 22.3523 23.2775C22.3656 23.3054 22.3793 23.3329 22.3935 23.3604C22.4019 23.3766 22.4108 23.3924 22.4192 23.4081C22.4329 23.4338 22.4471 23.4595 22.4617 23.4848C22.4719 23.5019 22.4825 23.519 22.4931 23.5361C22.5073 23.5596 22.5215 23.583 22.5365 23.606C22.5489 23.6249 22.5617 23.6434 22.5741 23.6619C22.5888 23.6831 22.6025 23.7042 22.6175 23.725C22.6321 23.7457 22.6481 23.7655 22.6636 23.7858C22.6777 23.8043 22.691 23.8228 22.7056 23.8412C22.7247 23.8651 22.7441 23.8881 22.7641 23.9115C22.776 23.926 22.7875 23.9404 22.7999 23.9548C22.8318 23.9913 22.8646 24.0269 22.8982 24.0625C22.8991 24.0634 22.9 24.0643 22.9009 24.0652C23.2922 24.4744 23.7469 24.7435 24.2653 24.8715C24.3596 24.8949 24.4561 24.9134 24.5544 24.9273C24.7022 24.9481 24.8545 24.9589 25.0117 24.9589C25.2056 24.9589 25.3929 24.9418 25.5735 24.9084C25.9529 24.8381 26.3031 24.6944 26.6245 24.4762C26.7135 24.4158 26.7963 24.3523 26.8728 24.2856C26.8985 24.2635 26.9233 24.241 26.9477 24.218C26.9959 24.172 27.042 24.1252 27.0849 24.0765C27.1185 24.0386 27.15 23.9994 27.1801 23.9602C27.1965 23.9386 27.2128 23.9165 27.2283 23.8944C27.2686 23.8367 27.3058 23.7777 27.3395 23.7164C27.3527 23.6925 27.3656 23.6682 27.3775 23.6438C27.4404 23.5177 27.49 23.3847 27.5258 23.245H30.6797C30.5849 24.1626 30.2724 24.9792 29.7429 25.6953C29.2134 26.4114 28.5374 26.9747 27.7153 27.3853C27.4802 27.5025 27.2385 27.6025 26.9906 27.6863C26.9817 27.689 26.9733 27.6922 26.9645 27.6954C26.9268 27.708 26.8888 27.7201 26.8507 27.7319C26.8383 27.7355 26.8264 27.7395 26.814 27.7431C26.7772 27.7544 26.74 27.7652 26.7028 27.7756C26.6896 27.7792 26.6763 27.7828 26.663 27.7864C26.6258 27.7967 26.5886 27.8067 26.551 27.8157C26.539 27.8188 26.5271 27.8215 26.5151 27.8242C26.4757 27.8337 26.4363 27.8436 26.3965 27.8522C26.3947 27.8522 26.3929 27.8531 26.3916 27.8531C26.2584 27.8828 26.1233 27.9076 25.987 27.9283C25.971 27.9306 25.9555 27.9333 25.9396 27.9356C25.9051 27.9405 25.8705 27.945 25.8356 27.9495C25.8157 27.9522 25.7962 27.9545 25.7762 27.9567C25.7426 27.9608 25.709 27.9644 25.6753 27.9676C25.6541 27.9698 25.6328 27.9716 25.6116 27.9734C25.5784 27.9766 25.5447 27.9793 25.5115 27.9815C25.4898 27.9833 25.4681 27.9847 25.4469 27.986C25.4132 27.9883 25.3791 27.9905 25.3455 27.9919C25.3251 27.9928 25.3048 27.9937 25.2844 27.9941C25.2485 27.9955 25.2127 27.9973 25.1768 27.9977C25.1219 27.9991 25.067 28 25.0117 28C24.9448 28 24.8789 27.9991 24.8129 27.9968C24.7731 27.9959 24.7337 27.9937 24.6943 27.9919C24.6677 27.9905 24.6407 27.9896 24.6141 27.9883C24.5756 27.986 24.538 27.9833 24.4999 27.9802C24.4729 27.9784 24.4455 27.9761 24.4185 27.9739C24.3804 27.9707 24.3423 27.9667 24.3042 27.9626C24.2781 27.9599 24.252 27.9572 24.2259 27.954C24.1874 27.9495 24.1489 27.9446 24.1103 27.9392C24.086 27.936 24.0616 27.9324 24.0373 27.9288C23.9974 27.9229 23.958 27.9166 23.9186 27.9099C23.8965 27.9063 23.8748 27.9022 23.8527 27.8981C23.8115 27.8909 23.7703 27.8833 23.7292 27.8747C23.711 27.8711 23.6929 27.8671 23.6747 27.8635C23.6304 27.854 23.5866 27.8445 23.5428 27.8342C23.5313 27.8314 23.5198 27.8283 23.5083 27.8256C23.1687 27.7436 22.842 27.6327 22.5272 27.4925C22.5259 27.4921 22.525 27.4916 22.5237 27.4907C22.4719 27.4678 22.4201 27.4434 22.3692 27.4186C22.3665 27.4173 22.3634 27.4159 22.3608 27.4146C22.3098 27.3898 22.2594 27.3646 22.2093 27.3384C22.2071 27.3371 22.2045 27.3362 22.2023 27.3348C22.1142 27.2884 22.0265 27.2406 21.9406 27.1897C21.0313 26.6507 20.3119 25.9184 19.7824 24.9927C19.2529 24.067 18.9878 23.0251 18.9878 21.8664C18.9878 20.7077 19.2525 19.6374 19.7824 18.7036C20.3119 17.7703 21.0313 17.0298 21.9406 16.4823C22.8499 15.9352 23.8735 15.6616 25.0117 15.6616C25.9764 15.6616 26.8693 15.8667 27.6918 16.2772C28.514 16.6878 29.19 17.243 29.7195 17.9429C30.2489 18.6432 30.5695 19.4436 30.6801 20.345H27.5024C27.3758 19.8781 27.0796 19.4878 26.613 19.1741C26.1464 18.8605 25.6129 18.7032 25.0121 18.7032C24.1741 18.7032 23.4706 19.0051 22.9013 19.6086C22.332 20.212 22.0473 20.9646 22.0473 21.866V21.8678ZM9.88966 3.28582C10.7436 4.24349 11.1704 5.55944 11.1704 7.23322V13.945H8.06349V7.64378C8.06349 6.80689 7.83815 6.139 7.38747 5.64011C6.9368 5.14122 6.34003 4.89155 5.59672 4.89155C4.85341 4.89155 4.23318 5.14122 3.7825 5.64011C3.33182 6.139 3.10648 6.80689 3.10648 7.64378V13.945H0V2.09065L3.10693 3.39443C3.96091 2.3642 5.05174 1.84909 6.37987 1.84909C7.86604 1.84909 9.03612 2.32815 9.88966 3.28582ZM55.1539 11.4461C54.6873 10.5848 54.4545 9.59112 54.4545 8.46445V2.09065H57.5375V8.46445C57.5375 8.53069 57.5415 8.59379 57.5441 8.65823C57.5521 8.84075 57.5716 9.01426 57.6026 9.17875C57.618 9.26123 57.6362 9.34145 57.6574 9.41896C57.7101 9.61365 57.781 9.79482 57.8695 9.96157C57.8872 9.99491 57.9058 10.0278 57.9248 10.0598C58.0014 10.1887 58.09 10.309 58.19 10.4199C58.6248 10.903 59.2136 11.1441 59.9569 11.1441C60.2681 11.1441 60.5537 11.0977 60.8135 11.0053C60.8507 10.9922 60.887 10.9778 60.9233 10.9629C61.212 10.8422 61.467 10.661 61.6883 10.4199C61.7968 10.3018 61.8915 10.1734 61.9734 10.035C62.0757 9.86197 62.1567 9.67314 62.2173 9.46853C62.232 9.41986 62.2448 9.37029 62.2567 9.31981C62.3156 9.0733 62.3475 8.8056 62.3506 8.51627C62.3506 8.4987 62.3524 8.48202 62.3524 8.464V2.09065H65.4354V8.46445C65.4354 9.59112 65.2021 10.5848 64.7359 11.4461C64.2693 12.3073 63.6252 12.9792 62.803 13.4619C62.6565 13.548 62.5051 13.6232 62.3506 13.694C62.1722 13.7756 61.9889 13.8472 61.8003 13.9085C61.5644 13.9851 61.32 14.0464 61.0676 14.0915C60.7139 14.1546 60.3438 14.1861 59.9573 14.1861C59.2299 14.1861 58.5637 14.0771 57.9558 13.8616C57.9089 13.845 57.8629 13.8278 57.8168 13.8103C57.7385 13.7801 57.6614 13.7476 57.5853 13.7138C57.572 13.708 57.5583 13.7021 57.5446 13.6963C57.3883 13.625 57.2351 13.5489 57.0872 13.4624C56.2651 12.9797 55.6205 12.3068 55.1539 11.4461ZM32.4691 10.4199C32.4691 10.0657 32.3071 9.80023 31.983 9.62311C31.659 9.446 31.2477 9.30945 30.7496 9.21255C30.2516 9.11611 29.7221 9.01156 29.1608 8.89889C28.5994 8.78622 28.0699 8.61722 27.5719 8.39189C27.0738 8.16656 26.6665 7.84072 26.3504 7.41394C26.0343 6.98761 25.8763 6.40399 25.8763 5.66354C25.8763 4.5851 26.2796 3.6797 27.0858 2.94737C27.892 2.21503 28.9987 1.84864 30.4061 1.84864C31.2282 1.84864 31.999 1.99736 32.7184 2.29525C33.4378 2.59314 34.0345 3.02759 34.5091 3.59903C34.9833 4.17048 35.2679 4.88254 35.3631 5.73565H32.2327C32.2013 5.41387 32.0193 5.12815 31.6873 4.87848C31.3553 4.62881 30.9046 4.50443 30.3353 4.50443C29.9085 4.50443 29.5565 4.5851 29.2798 4.74598C29.0031 4.90687 28.8646 5.14032 28.8646 5.44632C28.8646 5.78432 29.0226 6.02994 29.3392 6.18271C29.6553 6.33549 30.0665 6.45221 30.5726 6.53288C31.0786 6.61355 31.612 6.71 32.1734 6.82266C32.7347 6.93533 33.2682 7.11244 33.7742 7.354C34.2802 7.59556 34.6911 7.95744 35.0076 8.44056C35.3237 8.92323 35.4817 9.57534 35.4817 10.396C35.4817 11.1202 35.2803 11.7683 34.877 12.3393C34.4737 12.9107 33.9283 13.3614 33.2408 13.6913C32.5528 14.0212 31.7745 14.1861 30.9046 14.1861C29.4184 14.1861 28.197 13.8197 27.2403 13.0874C26.2836 12.3551 25.7422 11.3289 25.6155 10.0093H28.5799C28.6273 10.4438 28.8526 10.7939 29.2559 11.0594C29.6592 11.3248 30.1533 11.4578 30.7381 11.4578C31.2756 11.4578 31.6988 11.3654 32.0069 11.1802C32.3151 10.9949 32.4691 10.7421 32.4691 10.4199ZM62.6707 16.4354C61.8092 15.9203 60.8485 15.663 59.7891 15.663C58.6664 15.663 57.6508 15.9365 56.7415 16.4836C55.8326 17.0307 55.1092 17.7631 54.5713 18.6806C54.0339 19.5982 53.7652 20.6361 53.7652 21.7952C53.7652 22.9543 54.0339 24.0044 54.5713 24.9458C55.1088 25.8873 55.8361 26.6318 56.7534 27.1789C57.6703 27.726 58.6982 27.9995 59.8365 27.9995C60.8166 27.9995 61.6941 27.8265 62.4688 27.4804C63.2435 27.1343 63.8837 26.6475 64.3897 26.0198C64.8957 25.392 65.2118 24.6515 65.3384 23.7984H62.3028C62.1921 24.2653 61.9154 24.6434 61.4727 24.9332C61.03 25.223 60.4607 25.3677 59.7652 25.3677C58.9112 25.3677 58.1958 25.1099 57.6189 24.5952C57.0416 24.0801 56.7061 23.396 56.6109 22.5429H65.4332C65.4491 22.3657 65.4646 22.1688 65.4805 21.9516C65.4965 21.7344 65.5044 21.5613 65.5044 21.4324C65.5044 20.354 65.2477 19.3801 64.7337 18.5112C64.2197 17.6418 63.5326 16.9505 62.6707 16.4354ZM56.7769 20.5158C56.9823 19.7591 57.3422 19.1917 57.8558 18.8136C58.3698 18.4355 58.9665 18.2462 59.6465 18.2462C60.3265 18.2462 60.9193 18.4594 61.4253 18.8861C61.9313 19.3125 62.208 19.856 62.2554 20.5158H56.7769ZM51.8465 2.09065H53.1033V5.54817H51.7752C50.969 5.54817 50.297 5.82579 49.7595 6.38101C49.2221 6.93623 48.9534 7.78529 48.9534 8.92818V13.9446H45.8464V2.09065L48.9534 3.61165C49.2854 3.12899 49.6927 2.75448 50.1748 2.48904C50.6569 2.2236 51.2138 2.09065 51.8465 2.09065ZM85 6.62933V13.9446H81.8696V7.37789C81.8696 6.60544 81.6757 5.99794 81.2883 5.55493C80.901 5.11238 80.375 4.8911 79.7114 4.8911C79.1106 4.8911 78.5807 5.0921 78.1225 5.49454C77.6639 5.89699 77.435 6.52477 77.435 7.37743V13.9441H74.3281V7.37743C74.3281 6.60499 74.1306 5.99749 73.7353 5.55448C73.34 5.11193 72.8025 4.89065 72.1225 4.89065C71.5532 4.89065 71.0396 5.09165 70.581 5.49409C70.1223 5.89654 69.893 6.52432 69.893 7.37698V13.9437H66.7861V2.09065L69.893 3.20109C70.3672 2.66976 70.8931 2.31193 71.4699 2.1267C72.0472 1.94148 72.5966 1.84909 73.1181 1.84909C73.9088 1.84909 74.6003 2.00187 75.1936 2.30787C75.7864 2.61387 76.2724 3.09654 76.6523 3.75632C76.9843 3.19298 77.4744 2.7342 78.1225 2.37998C78.7706 2.02575 79.4746 1.84864 80.2334 1.84864C81.1661 1.84864 81.9922 2.04603 82.7116 2.44037C83.431 2.8347 83.9924 3.38992 84.3957 4.10604C84.799 4.82215 85 5.66354 85 6.62933ZM51.8442 15.9045H53.1011V18.7775H51.773C50.9668 18.7775 50.2948 19.0551 49.7569 19.6104C49.2194 20.1656 48.9507 21.0146 48.9507 22.1575V27.7584H45.8438V15.9045L48.9507 17.4255C49.2827 16.9429 49.69 16.5684 50.1721 16.3029C50.6542 16.0375 51.2116 15.9045 51.8442 15.9045ZM41.5539 2.09065H44.4709V5.66535H41.5539V9.14045C41.5539 10.4442 42.1945 11.0959 43.4748 11.0959H44.4709V13.9446H42.9294C41.5066 13.9446 40.4038 13.5462 39.6211 12.7494C38.8384 11.9526 38.447 10.8381 38.447 9.40544V5.6649H36.2649L41.5539 0V2.09065ZM39.6901 16.0253C39.0655 15.7837 38.3974 15.663 37.686 15.663C36.6266 15.663 35.6699 15.9406 34.8164 16.4958C33.9624 17.051 33.2908 17.7955 32.8007 18.7289C32.3106 19.6622 32.0654 20.7005 32.0654 21.8434C32.0654 22.9863 32.3106 24.0003 32.8007 24.9337C33.2908 25.867 33.9628 26.6115 34.8164 27.1667C34.9514 27.2546 35.0895 27.3348 35.2298 27.4087C35.2467 27.4177 35.2635 27.4268 35.2803 27.4353C35.3126 27.452 35.3458 27.4678 35.3786 27.484C35.3985 27.4935 35.4184 27.5034 35.4384 27.5128C35.4702 27.5277 35.5021 27.5421 35.534 27.5565C35.5557 27.566 35.5769 27.5755 35.5986 27.5849C35.6301 27.5985 35.6615 27.6115 35.6929 27.6241C35.7155 27.6332 35.7381 27.6422 35.7607 27.6507C35.7921 27.6629 35.8231 27.6751 35.8545 27.6863C35.878 27.6949 35.9019 27.703 35.9253 27.7111C35.9563 27.7219 35.9873 27.7328 36.0187 27.7431C36.0435 27.7512 36.0692 27.7589 36.094 27.7666C36.1246 27.776 36.1547 27.7855 36.1852 27.7945C36.2383 27.8098 36.2919 27.8242 36.3455 27.8378C36.3716 27.8445 36.3982 27.8504 36.4243 27.8562C36.4557 27.8634 36.4871 27.8711 36.5186 27.8779C36.5456 27.8837 36.5726 27.8887 36.5996 27.8941C36.631 27.9004 36.6624 27.9067 36.6943 27.9126C36.7213 27.9175 36.7483 27.922 36.7753 27.9261C36.8077 27.9315 36.8404 27.9365 36.8732 27.9414C36.8997 27.9455 36.9267 27.9491 36.9533 27.9522C36.9869 27.9567 37.021 27.9608 37.0551 27.9644C37.0812 27.9671 37.1074 27.9703 37.1335 27.9725C37.1693 27.9761 37.2057 27.9788 37.242 27.9815C37.2663 27.9833 37.2906 27.9856 37.3154 27.9869C37.3562 27.9896 37.3969 27.9914 37.4381 27.9932C37.4584 27.9941 37.4792 27.9955 37.4996 27.9959C37.5616 27.9977 37.6236 27.9991 37.686 27.9991C37.9972 27.9991 38.3 27.9766 38.5949 27.9319C38.721 27.913 38.8459 27.8896 38.969 27.8621C39.2155 27.8076 39.4555 27.7364 39.6897 27.6489C39.8021 27.607 39.9115 27.5611 40.0195 27.5128C40.2869 27.3943 40.5415 27.2582 40.7818 27.1027C40.9846 26.972 41.1776 26.8278 41.3618 26.671V27.7575H44.4687V15.9036L41.3618 17.0141C40.8717 16.5958 40.3143 16.2655 39.6897 16.0244L39.6901 16.0253ZM41.2582 22.6916C41.1976 22.9259 41.1108 23.1481 40.997 23.3595C40.9806 23.3897 40.9642 23.4194 40.9465 23.4492C40.8868 23.5519 40.8213 23.6488 40.7522 23.7421C40.7349 23.7655 40.7177 23.789 40.6999 23.8115C40.5831 23.9607 40.4542 24.0977 40.3121 24.2211C40.1621 24.3518 39.9982 24.469 39.8203 24.5713C39.761 24.6056 39.7008 24.6376 39.6397 24.6673C39.4869 24.7421 39.3293 24.8034 39.166 24.8516C39.0681 24.8805 38.9681 24.9044 38.8662 24.9237C38.6626 24.962 38.451 24.9814 38.2314 24.9814C37.8294 24.9814 37.4549 24.9147 37.1087 24.7818C37.0144 24.7453 36.9219 24.7043 36.8316 24.6578C36.7714 24.6272 36.712 24.5939 36.654 24.5587C36.5956 24.5235 36.5389 24.4866 36.4836 24.4487C36.0962 24.181 35.7815 23.8394 35.5393 23.4239C35.2626 22.9489 35.1245 22.4221 35.1245 21.8425C35.1245 21.2472 35.2631 20.7118 35.5393 20.2372C35.816 19.7622 36.1874 19.3882 36.654 19.1146C37.1207 18.8411 37.6461 18.7041 38.231 18.7041C38.8158 18.7041 39.3457 18.8411 39.8198 19.1146C40.294 19.3882 40.6698 19.7622 40.9465 20.2372C41.2232 20.7122 41.3614 21.2472 41.3614 21.8425C41.3614 22.0287 41.3476 22.2089 41.3206 22.3833C41.3042 22.4879 41.2834 22.5902 41.2573 22.6907L41.2582 22.6916Z" fill="#1D1B20"/>
</svg>
